<svg xmlns="http://www.w3.org/2000/svg" viewBox="0 0 600 600" width="600" height="600" role="img" aria-label="Locator map: Riva del Garda">
<rect width="600" height="600" fill="#d3e1e2"/>
<path d="M73.3,-2L72.8,-1.2L72.2,2.5L72.2,6.5L73,8.8L73,9.6L71.2,11.1L70.3,12L69.8,13L69.8,15.3L69.3,16.2L68.7,17L68.2,18.2L67.9,19.5L67.4,22.4L67.4,23.9L67.6,25.2L67.9,26.7L68.5,28.3L68.2,29.8L67.4,31.5L66,32.3L64.7,33.2L64.1,35.5L64.1,37.8L63.6,39.7L62.8,41.4L57.9,48.1L57.4,49.4L57.4,51.1L57.1,51.9L56.6,52.6L56,53.6L55.5,55.3L55,57.5L55.2,62.1L58.5,67.8L58.5,71.4L57.9,72.7L55.8,74.8L55.5,76.3L55.5,78.2L55.5,78.7L55,79.7L54.7,80.3L54.1,80.8L53.9,81.2L53.9,81.8L53.9,82L53.9,82.3L53.9,82.9L54.4,85L54.1,86.1L53.1,86.7L52.8,87.2L51.7,90.8L51.4,92.3L52.3,96.3L52.3,98.2L52,98.9L50.6,100.2L50.4,100.8L50.6,103.2L50.9,104.4L51.2,104.9L52.3,105.5L53.3,107L55,110.4L55.5,111L55.8,111.3L56.3,111.9L56.6,113L56.3,113.4L56,114.5L53.3,115.5L51.4,116.6L51.2,117L48.2,119.2L48.5,119.4L49.6,120.3L49.8,120.3L49.8,121.5L49.6,122L49,122.2L48.2,122L47.7,122.2L47.7,122.6L47.9,123.2L48.5,123.9L48.5,124.1L48.5,124.5L48.5,124.7L48.2,124.8L47.1,126L46,125.8L45.5,125.4L45.2,125.2L43.9,124.8L43.1,125L43.1,125.8L43.3,126.3L43.6,126.7L44.2,127.1L44.2,127.8L43.9,128.8L43.6,129.3L42.5,130.8L41.2,131.4L40.4,131.6L37.4,131.4L35.2,131.4L33.1,131.8L30.4,133.1L29.8,133.1L29.3,132.9L29,132.5L28.8,132.1L28.5,131.8L26.3,131.2L24.7,130.3L24.2,128.4L25.5,125.2L23.6,125.4L22.6,125.2L21.5,124.7L19.9,124.3L16.1,125L14.2,124.7L13.4,124.3L12.8,124.1L12,124.3L11.5,124.7L10.1,125.2L10.1,126.3L10.9,127.8L11.2,129.2L10.7,130.1L9.6,131.2L8.5,131.8L6.4,132.3L6.4,134.4L4.5,135.5L3.4,137L2.3,138.7L2,140.2L10.9,139.3L12.3,138.5L13.4,139.4L14.5,140.6L15.3,141.7L14.7,142.8L13.9,143.4L13.4,143.6L12.6,143.9L11.5,145.4L10.9,145.6L10.4,145.6L8.8,147.1L8.5,149.3L8.8,152.1L3.7,155.9L1.5,158.1L0.1,160.5L-0.1,160.7L-2,162.4L-2,-2ZM-2,257.1L-0.9,259L-2,261L-2,257.1ZM-2,274.3L1,274.9L2.3,276L2,276.7L1.5,277.7L1,278.4L0.7,278.9L1,278.9L1,279.8L1,281.1L1,282L0.7,282.4L1,282.8L1.5,283.3L2.3,283.3L2.8,282.9L3.4,282.4L3.9,282.2L5.5,282.9L10.7,288.6L10.9,289L11.5,290.1L12.3,292.2L12.8,294.2L13.1,295.3L13.6,296.2L12.6,296.8L11.8,297.7L11.2,299L10.7,300.4L9.6,302.3L8.2,303.5L6.4,304.3L5,304.8L3.1,304.8L2.6,304.8L2.6,305.3L2.3,306.1L2.3,306.6L1.8,306.8L1.5,306.1L1,305.7L0.1,305.5L-1.7,306.1L-2,306.2L-2,274.3ZM-2,320.4L-1.7,320.8L0.1,322.2L2.3,322.8L3.1,323.1L5,324.8L5.8,325.5L8.2,326.2L9.3,326.8L9.6,328.4L9.6,328.9L8.8,330.9L8.5,331.8L8.5,332.7L9.3,333.8L9.9,334.7L10.1,339.1L10.7,340.7L14.2,342.7L17.4,345L17.7,345.6L18.2,346.3L18.8,347.6L19.3,348.8L20.4,349.5L23.4,351L24.2,351.3L23.9,352.8L23.4,354.4L21.7,357.1L19.3,360L19,360.7L19.3,363.8L20.1,365.9L20.1,367.6L18,369.4L16.6,371.9L16.1,372.4L15.8,372.2L14.7,371.2L14.2,371L11.5,371.7L8.8,372.8L8,373.9L6.6,376L5.5,377.1L4.7,377.3L3.1,377.3L2.6,377.4L2,378.3L2.6,379.1L2.8,379.4L2.8,380.1L0.4,381.4L-2,380.4L-2,320.4ZM-2,408.6L0.4,410L2,410.4L5.5,409.7L6.9,409.9L10.7,411.3L12,412.9L12.3,413.4L12.6,414L12.6,414.3L12.6,414.5L12.6,415L12.3,415.2L12,416.8L11.8,417L12.8,419.3L13.1,421.8L13.4,422.7L15.8,427.2L16.1,428.4L14.7,428.4L12,427.7L10.7,427.7L9.1,428.6L7.7,430.4L7.2,432.5L8,434.7L6.9,435.5L4.2,440L0.4,443L-0.4,444.4L-0.1,447.6L1.5,450.6L3.9,453L5.8,454.7L3.4,456L2.8,456.9L2,460.2L2,460.9L2,461.5L2.3,462.4L2.6,462.9L4.2,464.8L4.7,465.7L5.5,467.8L6.1,468.7L6.9,469.4L8.2,470.5L9.1,471.4L9.3,472.3L9.6,473.3L10.1,474.2L10.7,475.1L11.8,475.4L12.6,475.3L13.4,475.1L14.5,474.9L15.5,475.3L19.9,477.6L22.8,478.6L30.9,483.6L32.3,484.3L34.2,484.5L35.2,485L35.8,485.7L36.1,486.6L36.9,487.3L37.7,487.5L40.6,487.5L53.6,483.7L55.8,483.6L58.7,481.5L61.2,482L60.1,485.3L61.2,487.3L62.8,488.9L63.6,490.8L63.9,491.5L63.9,493.3L62.8,494.3L61.7,495.2L60.9,496.1L60.6,497.5L59.8,499.8L59.3,501L57.7,502.8L53.9,506.1L52.3,508.6L49,512.1L47.9,514.4L48.2,517L49.6,521.9L48.7,522.6L48.5,522.6L47.9,522.6L47.7,522.8L47.7,523.2L47.9,524.4L47.7,524.7L47.1,525.1L46.6,525.1L46,525.6L45.5,526.3L44.7,527L43.9,525.8L42.5,524.9L41.2,525.4L39.8,526.7L39.6,527.9L39.6,529.1L38.5,529.8L37.7,530.7L37.4,531.8L36.9,533L36.1,533L34.7,532.8L33.1,532.3L31.2,532.5L30.1,533.2L29,534.2L29.3,535.3L28,536.8L27.4,537.4L26.9,536L25.3,535.6L24.4,536.1L23.4,536.1L22.8,537.2L22.3,537.5L22,538.4L21.5,541.2L22,544L22,544.5L22.3,545.8L22.6,546.6L21.5,547.3L20.4,545.6L19.9,545.2L18.5,545.1L17.4,545.9L16.3,547L15.3,547.8L14.7,548.5L14.2,547.3L13.1,547.3L11.5,547.1L10.1,547.3L9.1,548L8,549.4L7.7,551L8.2,551.3L8.2,551.5L8.5,551.7L8.5,552.2L6.4,555L6.1,557.4L4.5,558.7L3.9,559.7L2.3,559.9L2.3,559.2L2,558.8L1.8,558.5L1.2,558.8L1.2,559.5L1.5,560.9L0.4,561.3L-0.4,560.9L-1.5,560.9L-2,561.1L-2,408.6ZM193.6,602L193.7,601.9L193.8,602L193.6,602ZM589.6,-2L589.6,-1.2L589.3,1.7L588.7,2.1L587.7,3.2L586.3,3.1L585.8,2.3L585.5,1.3L584.7,0.2L584.2,0.2L583.1,0.6L582.3,0.6L582.3,0L582.3,-0.8L582,-1.5L581.5,-1.9L580.4,-1.7L578.2,-0.8L577.1,-0.4L576.1,-0.8L573.7,-2L589.6,-2ZM569.7,-2L568.5,0.8L567.4,2.1L563.6,3.8L562,5L561.5,5.2L560.7,5.4L553.1,2.7L542.6,1.5L540.1,0.4L539.3,-0.2L538.3,-1.7L538.1,-2L569.7,-2ZM522.2,-2L522.1,-0.8L521.8,0.8L520.4,3.4L520.2,4L519.4,4.6L518.8,5L517.2,5.2L516.9,5.2L516.4,6.3L515.8,9.4L515.6,9.2L512.6,7.8L511.3,6.1L510.2,5.2L508.8,4.4L501,2.3L498.6,2.7L496.1,3.4L495.3,4.2L495.1,5L495.1,5.4L495.3,5.9L495.6,7.8L496.4,9L496.4,9.9L496.1,11.1L495.3,13.2L494.8,14.3L494.8,15.3L494.8,18.5L494.8,19.7L494.2,20.4L494,21L494,21.6L493.4,24.1L492.4,25.8L485.1,32.3L482.6,33.6L472.1,35.5L464.5,38.5L463.2,39.3L460.5,42.2L458.1,43.5L457,44.4L457,44.6L452.9,45.4L451.6,46.2L451,46.9L449.7,49L448.6,50.1L445.6,52.2L445.4,52.6L444.3,54.3L443.8,54.5L443.5,54.5L442.9,54.7L442.4,55.5L442.4,57L442.7,58.5L443.2,59.8L444,61L449.4,66.4L450.5,68.9L450.5,70L450.8,70.2L451,71.6L451.6,72.3L453.5,73.4L455.1,75L455.6,75.3L456.7,76.7L459.4,82.5L461,85L461.3,85.3L456.4,93.1L456.2,94L455.9,94.6L455.9,95.3L455.9,96.1L455.4,96.8L454,99.1L455.1,100.2L459.4,101.2L460.5,100.8L462.4,100L463.5,100.2L464.5,101L465.4,102.1L466.7,104.6L467.5,106.3L467.5,107.6L467.5,108.9L467.5,110.4L467.2,110.6L466.4,112.8L466.2,113L465.1,114.7L464.8,114.5L464.8,117.2L465.1,117L465.1,117.2L464.3,119L464,119.2L464,121.3L464.3,121.8L464.3,122.6L464.5,123.2L464.8,123.7L464.8,124.7L462.7,127.3L462.1,127.7L461.3,127.7L460.8,127.5L460.5,127.1L459.7,126.7L458.9,126.7L458.3,126.9L457.8,127.3L457,126.9L453.2,124.1L449.7,120.3L449.2,119.8L448.3,119.6L447.3,119.4L445.4,117.9L445.1,115.1L445.9,112.5L448.1,111.5L446.5,110L444.6,108.7L443.5,107.4L444,105.3L442.9,105.5L438.6,104.4L435.9,104.4L433.2,105.1L431.9,105.9L429.2,108.1L428.6,108.9L427.3,109.3L425.7,109.6L424.3,109.6L423.2,109.1L421.1,107.2L420.3,106.6L420,105.7L419.2,103.2L418.9,102.7L417.6,102.3L414.6,103.4L413.2,103.8L408.9,102.9L407.3,103.1L405.7,104L404.9,104L404.1,103.4L403.8,102.1L404.1,101.4L404.6,100.6L404.9,99.9L404.9,98.5L405.1,98.2L404.9,98.2L403.8,98.5L403.3,99.1L401.4,100.6L400.3,101L400.3,101.9L400.6,102.5L401.1,103.2L401.9,103.8L402.2,104.2L402.4,104.8L402.4,107.8L402.4,108.7L402.2,109.5L400,112.3L399.5,112.5L382.2,111.7L376,112.8L375.2,113.4L374.4,115.3L373.6,115.7L369.2,114.7L363.3,114.7L360.1,114L358.4,114L358.2,114.3L356.3,116L355.7,117.3L355.2,119.8L354.7,120.9L353.3,122.4L351.7,123L348.2,123.7L346.6,123.2L344.7,122.8L343,123.3L339.5,127.3L340.3,127.7L341.2,128.2L341.4,129L340.9,130.1L339.5,130.6L336.3,130.6L334.9,131L333.6,132.5L332.5,133.8L331.4,135L329.8,135.7L327.9,135.5L328.2,132.5L326.6,131.8L324.7,132.3L319.8,135.7L318.2,136.3L310.4,136.1L309.3,135.5L308.8,134L309,133.5L309.3,132.7L309.3,132L309,131.4L305.2,127.5L301.5,125.6L300.9,124.7L303.4,123L303.9,122.2L302.3,120.9L301.5,120.5L300.4,120.5L299.3,120.7L296.3,122.2L294.2,122.4L293.4,122.2L293.1,121.7L292.8,121.1L292.6,120.7L282.6,117L280.7,117L279.9,117.7L278.2,119.8L277.2,120.5L276.4,120.7L273.1,120.3L272,119.8L271.5,119.2L271,118.8L271,117.9L271.2,117.2L271.5,116.6L271.5,116.2L271.2,115.1L271,114.9L270.4,115.1L269.1,115.5L268,115.8L268.3,116.8L268.8,118.1L269.3,119.2L269.3,120.3L268.5,124.7L269.6,125.2L270.1,126L270.7,126.9L271,128.4L271,130.6L270.1,133.3L269.1,135.5L268,137.2L267.2,137.6L265.6,138.1L264.7,138.7L264.5,139.3L262.9,142.6L261.5,144.5L259.9,145.8L256.6,147.8L255,148.6L250.2,149.2L249.1,149.3L248.5,149.2L249.1,148.4L249.6,147.1L249.9,146.9L251,146.7L251.2,146.4L251.5,145.6L251.5,144.9L251.2,144.1L252.6,140L252.6,138.1L251.2,137.4L248,137.9L247.2,138.9L246.9,139.1L246.4,139.1L245.6,138.7L245.3,138.7L244.2,139.1L243.7,139.4L243.1,139.6L242.6,138.9L242.1,137.8L242.1,136.6L241.8,135.5L241,134.4L242.6,133.1L243.1,132L242.3,130.6L238.8,125.2L237.7,125.6L237.2,126.2L236.4,126.5L235.6,126L235.6,125.4L235.6,125L235.6,124.7L234.8,123.2L234,122.2L233.2,121.3L232.9,119.4L232.1,120.2L231,120.3L228.6,120.2L226.4,119.4L226.1,119.4L225.1,120L224.5,120.2L222.9,119.2L222.6,118.1L222.9,116.8L222.6,115.5L221.8,114.5L220.7,114.1L219.7,114.1L218.6,114.9L216.7,116.8L215.9,118.7L214.8,120.5L212.6,121.5L208,121.5L203.5,120.3L203.2,120.2L182.4,107.2L179.7,106.6L176.7,106.6L175.6,104.9L171.6,104.9L163.2,104L161.9,104.6L160.5,105.9L157.8,106.8L154.9,107L153.2,106.6L151.1,104.9L150.8,104.9L149.7,103.8L149.7,103.1L151.1,102.7L149.2,100.8L146.8,99.5L144.9,99.3L144.1,101.6L144.9,102.3L140.8,102.3L140.5,101.6L140.5,100.8L139.7,100L139.5,99.1L139.7,98.4L140.8,96.8L141.1,96.5L140.5,95.3L139.7,95.2L138.9,95.3L138.1,95.2L137.6,94.2L137,92.9L136.2,91.9L135.4,91.6L134.6,92.3L134.3,94.8L133.3,95.3L132.4,94.8L132.4,93.5L132.2,91.9L132.2,91.2L130.8,90.4L128.9,90.4L127.6,91L128.4,92.9L127.3,93.5L123.3,94.2L122.5,94.2L121.6,94.6L120.8,96.1L120.3,96.8L119.8,99.1L118.9,99.9L117.1,100.8L116.5,101.7L116.2,102.5L116.5,103.4L116.8,104.4L116.2,105.5L117.6,105.9L117.9,106.1L119.8,107.6L121.4,108.3L122.7,108.3L123.8,107.8L124.9,107L126,106.4L129.7,105.9L130.6,106.1L131.6,106.3L131.9,106.4L132.4,106.6L132.2,109.3L131.6,108.9L131.6,108.3L131.6,108.1L131.1,108.1L130.8,108.3L130.6,108.5L130.3,109.1L130.6,109.6L130.6,110L130.8,110.4L130.6,111.1L130.6,111.9L130.6,112.8L130.3,113.4L130,113.6L128.9,114L128.4,113.2L128.1,113L127.3,111.5L126.2,110.4L123.8,110.6L121.6,112.1L120.8,114L120.6,114.5L118.7,114.9L118.4,114.9L113.5,114.9L110.8,114.1L110,113.8L109.5,112.6L109,111.5L108.7,111.1L107.9,111L105.7,110.4L104.4,110.4L100.3,111.1L100,111.3L99.8,111.9L99.2,112.5L97.9,112.8L96.3,113.8L95.5,114.1L94.9,114.9L94.6,115.5L94.4,116L93.6,116.4L90.1,117.2L80.3,117.2L80.3,116.8L80.1,115.7L79.8,114.7L79.3,114.1L74.7,114L73.6,113.4L72.2,115.5L70.9,117L69.5,117.7L66.6,118.3L63.3,119L61.7,118.8L60.6,118.3L57.7,116.8L57.9,116.8L59.8,116.8L60.6,116L61.4,113.2L59.8,113.4L56,114.5L56.3,113.4L56.6,113L56.3,111.9L55.8,111.3L55.5,111L55,110.4L53.3,107L52.3,105.5L51.2,104.9L50.9,104.4L50.6,103.2L50.4,100.8L50.6,100.2L52,98.9L52.3,98.2L52.3,96.3L51.4,92.3L51.7,90.8L52.8,87.2L53.1,86.7L54.1,86.1L54.4,85L53.9,82.9L53.9,82.3L53.9,82L53.9,81.8L53.9,81.2L54.1,80.8L54.7,80.3L55,79.7L55.5,78.7L55.5,78.2L55.5,76.3L55.8,74.8L57.9,72.7L58.5,71.4L58.5,67.8L55.2,62.1L55,57.5L55.5,55.3L56,53.6L56.6,52.6L57.1,51.9L57.4,51.1L57.4,49.4L57.9,48.1L62.8,41.4L63.6,39.7L64.1,37.8L64.1,35.5L64.7,33.2L66,32.3L67.4,31.5L68.2,29.8L68.5,28.3L67.9,26.7L67.6,25.2L67.4,23.9L67.4,22.4L67.9,19.5L68.2,18.2L68.7,17L69.3,16.2L69.8,15.3L69.8,13L70.3,12L71.2,11.1L73,9.6L73,8.8L72.2,6.5L72.2,2.5L72.8,-1.2L73.3,-2L522.2,-2ZM602,222.5L601.7,222.4L600.9,222.8L599.5,224.6L598.7,226.5L598.2,228.3L597.7,230L596.8,231.8L596,233.1L595.8,233.5L594.1,234.4L592.3,234.6L591.4,234.2L590.1,234.8L589.8,235.3L589.3,236L588.5,237L587.9,238.4L587.4,238.3L587.1,238.3L586.6,238.3L585.2,239.9L584.4,240.5L583.6,240.6L582,240.8L581.2,241L580.1,242.7L579.6,244.7L579,245.6L578.8,246.5L577.4,247.1L576.6,246.2L575.8,244.1L574.7,242.8L572,243.4L570.9,243.2L569.8,242.7L568.5,242.1L568,241.6L568,241L567.4,240.5L566.6,240.3L564.2,240.8L555.3,240.6L548.2,240.5L548,240.5L547.2,240.1L543.1,236.6L542,236L540.7,235.7L539.3,235.5L538,235.9L536.9,236L535.6,235.9L528.8,232.6L526.6,232.2L521.8,233.1L520.7,233.1L515.6,231.8L514.5,231.8L513.4,232L512.3,231.8L503.2,228.9L499.9,228.9L499.4,228.3L498.3,227.2L497.8,227L493.2,227.4L489.9,226.7L482.4,228.3L479.4,228.1L477.8,227.6L472.9,224.6L466.7,223.2L449.2,221.9L445.1,219.1L443.2,218.6L442.4,218.4L441.9,218.4L440.8,218.9L440,218.9L439.4,218.6L437.8,217.6L437.3,217.3L433.5,216.9L429.2,217.4L428.1,217.3L426.7,216.7L424.6,215L422.2,214.7L420.5,214.5L417.3,213.2L414.9,210.8L413.2,207.3L412.7,204.9L411.4,204.1L410,204L408.4,203.4L407.6,202.9L407.3,202.3L407,201.6L407,200.3L407.3,199L407.6,198.2L407.8,197.5L407.6,196L407,193.6L405.7,192.9L402.7,192.7L401.6,192.3L401.1,191.7L400.8,191.2L400,190.3L399.2,189.9L397.3,189.5L396.5,189.1L397.6,188L397.6,187.1L397,186L396.5,184.9L396.2,182.3L396,181L395.4,179.9L396.2,178L400.6,175.4L402.2,173.4L402.2,171.9L402.4,170.4L400.6,169.8L397,170.6L395.7,170.8L388.1,174.7L382.7,175L379.5,176.2L376.3,177.8L373.6,179.9L370.3,180.4L369.5,181L367.9,182.3L367.1,182.5L365.7,181.9L363.3,180.1L361.9,179.9L361.4,180.1L360.6,179.9L356.8,179.1L354.9,179.3L352.8,179.9L352,180.2L351.4,180.4L350.6,180.2L350.1,179.9L349.5,179.5L349.3,178.9L348.7,178.8L347.4,178.4L346.6,178.6L346,179.1L345.5,179.9L342.8,182.5L340.6,182.3L338.2,181.2L335.5,180.6L330.4,181.5L325,183.2L323.9,184L319,188.8L318.2,190.1L317.4,194L316,197.3L316,197.9L316,199L316,199.5L315.5,199.9L314.7,200.3L314.4,200.4L312.8,203.4L311.7,204.5L310.6,204.7L309.6,204.1L306.9,204L305.5,204.1L303.1,205.1L302.3,205.1L301.5,204.7L300.1,203.6L299.6,203.2L298.8,203.2L297.4,203.8L296.6,203.6L294.4,202.5L293.6,202.1L292,202.7L291.2,202.7L290.7,201.7L291.2,201.2L292.8,199.7L293.1,199L292.6,197.9L286.6,194.5L285.5,194.2L284.2,194.3L276.6,196.4L273.4,196L271,194.2L271,191.7L271.8,188L271.5,186.2L270.7,185.3L268.3,183.4L266.6,180.8L265.8,179.9L265.6,179.7L265,179.5L264.5,179.7L262.3,181L260.4,183L259.3,185.6L259.1,187.7L257.2,187.9L255.8,187.3L254.8,187.7L253.4,189.5L253.1,191L253.1,191.9L252.9,192.7L252.1,193.8L248.8,195.4L246.9,196L246.4,196L245.3,196L242.1,194.9L240.4,194L237.5,191.2L229.4,188.6L227.8,187.1L226.7,185.8L226.7,184.7L226.7,183.6L226.9,181L227.2,179.9L227.2,179.3L226.9,178.9L226.7,178.9L226.1,178.8L226.4,177.5L212.1,173L211,172.8L207,173.4L205.6,173L207.8,170.2L208.3,167.4L207.5,164.6L205.6,162.2L203.5,160.7L203.5,159.8L204.3,158.1L204.3,157.4L203.5,155.9L202.9,154.9L202.6,154L202.9,152.3L201.8,151.2L201,150.3L203.5,146.2L206.2,143L206.4,142.2L206.7,140.4L207,139.3L209.9,135.7L210.7,134L210.7,129.3L208.6,127.3L205.9,126.2L203.7,122.8L203.5,122L203.2,120.2L203.5,120.3L208,121.5L212.6,121.5L214.8,120.5L215.9,118.7L216.7,116.8L218.6,114.9L219.7,114.1L220.7,114.1L221.8,114.5L222.6,115.5L222.9,116.8L222.6,118.1L222.9,119.2L224.5,120.2L225.1,120L226.1,119.4L226.4,119.4L228.6,120.2L231,120.3L232.1,120.2L232.9,119.4L233.2,121.3L234,122.2L234.8,123.2L235.6,124.7L235.6,125L235.6,125.4L235.6,126L236.4,126.5L237.2,126.2L237.7,125.6L238.8,125.2L242.3,130.6L243.1,132L242.6,133.1L241,134.4L241.8,135.5L242.1,136.6L242.1,137.8L242.6,138.9L243.1,139.6L243.7,139.4L244.2,139.1L245.3,138.7L245.6,138.7L246.4,139.1L246.9,139.1L247.2,138.9L248,137.9L251.2,137.4L252.6,138.1L252.6,140L251.2,144.1L251.5,144.9L251.5,145.6L251.2,146.4L251,146.7L249.9,146.9L249.6,147.1L249.1,148.4L248.5,149.2L249.1,149.3L250.2,149.2L255,148.6L256.6,147.8L259.9,145.8L261.5,144.5L262.9,142.6L264.5,139.3L264.7,138.7L265.6,138.1L267.2,137.6L268,137.2L269.1,135.5L270.1,133.3L271,130.6L271,128.4L270.7,126.9L270.1,126L269.6,125.2L268.5,124.7L269.3,120.3L269.3,119.2L268.8,118.1L268.3,116.8L268,115.8L269.1,115.5L270.4,115.1L271,114.9L271.2,115.1L271.5,116.2L271.5,116.6L271.2,117.2L271,117.9L271,118.8L271.5,119.2L272,119.8L273.1,120.3L276.4,120.7L277.2,120.5L278.2,119.8L279.9,117.7L280.7,117L282.6,117L292.6,120.7L292.8,121.1L293.1,121.7L293.4,122.2L294.2,122.4L296.3,122.2L299.3,120.7L300.4,120.5L301.5,120.5L302.3,120.9L303.9,122.2L303.4,123L300.9,124.7L301.5,125.6L305.2,127.5L309,131.4L309.3,132L309.3,132.7L309,133.5L308.8,134L309.3,135.5L310.4,136.1L318.2,136.3L319.8,135.7L324.7,132.3L326.6,131.8L328.2,132.5L327.9,135.5L329.8,135.7L331.4,135L332.5,133.8L333.6,132.5L334.9,131L336.3,130.6L339.5,130.6L340.9,130.1L341.4,129L341.2,128.2L340.3,127.7L339.5,127.3L343,123.3L344.7,122.8L346.6,123.2L348.2,123.7L351.7,123L353.3,122.4L354.7,120.9L355.2,119.8L355.7,117.3L356.3,116L358.2,114.3L358.4,114L360.1,114L363.3,114.7L369.2,114.7L373.6,115.7L374.4,115.3L375.2,113.4L376,112.8L382.2,111.7L399.5,112.5L400,112.3L402.2,109.5L402.4,108.7L402.4,107.8L402.4,104.8L402.2,104.2L401.9,103.8L401.1,103.2L400.6,102.5L400.3,101.9L400.3,101L401.4,100.6L403.3,99.1L403.8,98.5L404.9,98.2L405.1,98.2L404.9,98.5L404.9,99.9L404.6,100.6L404.1,101.4L403.8,102.1L404.1,103.4L404.9,104L405.7,104L407.3,103.1L408.9,102.9L413.2,103.8L414.6,103.4L417.6,102.3L418.9,102.7L419.2,103.2L420,105.7L420.3,106.6L421.1,107.2L423.2,109.1L424.3,109.6L425.7,109.6L427.3,109.3L428.6,108.9L429.2,108.1L431.9,105.9L433.2,105.1L435.9,104.4L438.6,104.4L442.9,105.5L444,105.3L443.5,107.4L444.6,108.7L446.5,110L448.1,111.5L445.9,112.5L445.1,115.1L445.4,117.9L447.3,119.4L448.3,119.6L449.2,119.8L449.7,120.3L453.2,124.1L457,126.9L457.8,127.3L458.3,126.9L458.9,126.7L459.7,126.7L460.5,127.1L460.8,127.5L461.3,127.7L462.1,127.7L462.7,127.3L464.8,124.7L464.8,123.7L464.5,123.2L464.3,122.6L464.3,121.8L464,121.3L464,119.2L464.3,119L465.1,117.2L465.1,117L464.8,117.2L464.8,114.5L465.1,114.7L466.2,113L466.4,112.8L467.2,110.6L467.5,110.4L467.5,108.9L467.5,107.6L467.5,106.3L466.7,104.6L465.4,102.1L464.5,101L463.5,100.2L462.4,100L460.5,100.8L459.4,101.2L455.1,100.2L454,99.1L455.4,96.8L455.9,96.1L455.9,95.3L455.9,94.6L456.2,94L456.4,93.1L461.3,85.3L461,85L459.4,82.5L456.7,76.7L455.6,75.3L455.1,75L453.5,73.4L451.6,72.3L451,71.6L450.8,70.2L450.5,70L450.5,68.9L449.4,66.4L444,61L443.2,59.8L442.7,58.5L442.4,57L442.4,55.5L442.9,54.7L443.5,54.5L443.8,54.5L444.3,54.3L445.4,52.6L445.6,52.2L448.6,50.1L449.7,49L451,46.9L451.6,46.2L452.9,45.4L457,44.6L457,44.4L458.1,43.5L460.5,42.2L463.2,39.3L464.5,38.5L472.1,35.5L482.6,33.6L485.1,32.3L492.4,25.8L493.4,24.1L494,21.6L494,21L494.2,20.4L494.8,19.7L494.8,18.5L494.8,15.3L494.8,14.3L495.3,13.2L496.1,11.1L496.4,9.9L496.4,9L495.6,7.8L495.3,5.9L495.1,5.4L495.1,5L495.3,4.2L496.1,3.4L498.6,2.7L501,2.3L508.8,4.4L510.2,5.2L511.3,6.1L512.6,7.8L515.6,9.2L515.8,9.4L516.4,6.3L516.9,5.2L517.2,5.2L518.8,5L519.4,4.6L520.2,4L520.4,3.4L521.8,0.8L522.1,-0.8L522.2,-2L538.1,-2L538.1,-2L538.3,-1.7L539.3,-0.2L540.1,0.4L542.6,1.5L553.1,2.7L560.7,5.4L561.5,5.2L562,5L563.6,3.8L567.4,2.1L568.5,0.8L569.7,-2L573.7,-2L573.7,-2L576.1,-0.8L577.1,-0.4L578.2,-0.8L580.4,-1.7L581.5,-1.9L582,-1.5L582.3,-0.8L582.3,0L582.3,0.6L583.1,0.6L584.2,0.2L584.7,0.2L585.5,1.3L585.8,2.3L586.3,3.1L587.7,3.2L588.7,2.1L589.3,1.7L589.6,-1.2L589.6,-2L602,-2ZM419.2,511.6L421.6,511.2L423,508.9L422.7,508.6L423,508.2L423,508.1L423.2,507.9L423.2,507.7L423.8,506.7L424,504.9L423.8,503.1L423.2,502.1L421.1,502.4L418.6,503.7L417.8,504.5L416.8,505.6L415.9,508.2L417,510.3ZM275.4,602L275.8,601.3L277.4,595.5L277.2,594.3L277.2,592.1L277.4,590L278,588.6L277.4,586.9L277.2,584.6L276.9,580.4L276.6,578.3L275.8,576.3L269.9,563.7L265,557.1L263.9,555.9L261.5,554.7L260.7,552.9L259.1,545.1L256.9,520.2L255.8,516.3L252.9,508.6L250.4,504.9L247.2,502.6L245,498.6L243.7,497.7L242.3,497.1L239.6,495.4L238,494.9L236.9,494.3L236.1,494L235.9,494.5L235.6,495L235,495.6L234.2,495.6L233.4,495.2L232.3,494L229.9,492L228.6,490.6L227.8,491.2L225.3,489L224,489L224.5,489.9L224.2,490.1L223.7,490.5L223.4,490.6L223.7,491.5L224.2,492L224.8,492.6L225.6,492.7L225.6,493.4L225.1,493.6L224.8,494L224.5,494.9L225.6,495.4L225.3,496.1L224.5,495.9L224,494.5L223.4,493.6L219.9,492L216.1,488.5L215.3,488L213.2,486L212.4,485.5L210.2,485.5L209.4,485.2L208.6,484.8L205.9,481.8L205.6,481.6L205.1,480.2L203.7,479.3L200.2,477.7L199.4,477.2L198.9,476.2L198.3,474.7L197.5,475.3L196.2,475.4L194.8,475.3L194.3,474.4L193.7,473.5L190.2,471.9L189.7,469.6L181.6,465.2L179.4,463.2L178.6,464.3L178.1,465.4L177.8,466.8L177.8,468.4L174.3,467L172.9,465.9L173.2,464.8L171.9,462.4L169.7,461.1L162.1,459.9L158.4,458.5L156.2,457.2L155.7,457.6L152.2,457.4L150.5,457L149.7,456.7L148.9,455.4L144.1,455.1L142.2,455.4L141.4,456L139.2,457.7L138.4,458.6L137.8,459L137.3,459L136.8,459L136.2,459L131.6,462.4L130.3,462.5L129.5,462.9L127.6,464.8L121.9,468.5L120.3,470.7L120.8,472.6L120,473.9L119.8,474.4L119.8,475.3L119.5,475.4L118.4,476.2L117.9,476.5L117.6,477.9L117.6,479L117.6,480L116.5,481.3L114.6,482.2L110.6,483.6L108.4,484.8L107.3,485.9L106.3,486.9L104.4,489.6L104.4,490.3L104.4,491.9L104.4,492.7L103.8,494.3L103.3,495.6L99.8,499.6L98.4,502.1L99.5,504.2L99.5,504.9L97.9,505.2L95.7,507.9L93.6,508.6L93,509.1L92.8,509.6L92.5,510.2L92.2,511L91.1,511.6L89.2,512.1L84.1,515.6L70.9,518.8L67.4,521.2L64.1,522.1L55,521.9L52.8,522.8L51.7,522.8L51.2,522.3L50.4,521.9L49.6,521.9L48.2,517L47.9,514.4L49,512.1L52.3,508.6L53.9,506.1L57.7,502.8L59.3,501L59.8,499.8L60.6,497.5L60.9,496.1L61.7,495.2L62.8,494.3L63.9,493.3L63.9,491.5L63.6,490.8L62.8,488.9L61.2,487.3L60.1,485.3L61.2,482L58.7,481.5L55.8,483.6L53.6,483.7L40.6,487.5L37.7,487.5L36.9,487.3L36.1,486.6L35.8,485.7L35.2,485L34.2,484.5L32.3,484.3L30.9,483.6L22.8,478.6L19.9,477.6L15.5,475.3L14.5,474.9L13.4,475.1L12.6,475.3L11.8,475.4L10.7,475.1L10.1,474.2L9.6,473.3L9.3,472.3L9.1,471.4L8.2,470.5L6.9,469.4L6.1,468.7L5.5,467.8L4.7,465.7L4.2,464.8L2.6,462.9L2.3,462.4L2,461.5L2,460.9L2,460.2L2.8,456.9L3.4,456L5.8,454.7L3.9,453L1.5,450.6L-0.1,447.6L-0.4,444.4L0.4,443L4.2,440L6.9,435.5L8,434.7L7.2,432.5L7.7,430.4L9.1,428.6L10.7,427.7L12,427.7L14.7,428.4L16.1,428.4L15.8,427.2L13.4,422.7L13.1,421.8L12.8,419.3L11.8,417L12,416.8L12.3,415.2L12.6,415L12.6,414.5L12.6,414.3L12.6,414L12.3,413.4L12,412.9L10.7,411.3L6.9,409.9L5.5,409.7L2,410.4L0.4,410L-2,408.6L-2,380.4L-2,380.4L0.4,381.4L2.8,380.1L2.8,379.4L2.6,379.1L2,378.3L2.6,377.4L3.1,377.3L4.7,377.3L5.5,377.1L6.6,376L8,373.9L8.8,372.8L11.5,371.7L14.2,371L14.7,371.2L15.8,372.2L16.1,372.4L16.6,371.9L18,369.4L20.1,367.6L20.1,365.9L19.3,363.8L19,360.7L19.3,360L21.7,357.1L23.4,354.4L23.9,352.8L24.2,351.3L23.4,351L20.4,349.5L19.3,348.8L18.8,347.6L18.2,346.3L17.7,345.6L17.4,345L14.2,342.7L10.7,340.7L10.1,339.1L9.9,334.7L9.3,333.8L8.5,332.7L8.5,331.8L8.8,330.9L9.6,328.9L9.6,328.4L9.3,326.8L8.2,326.2L5.8,325.5L5,324.8L3.1,323.1L2.3,322.8L0.1,322.2L-1.7,320.8L-2,320.4L-2,306.2L-2,306.2L-1.7,306.1L0.1,305.5L1,305.7L1.5,306.1L1.8,306.8L2.3,306.6L2.3,306.1L2.6,305.3L2.6,304.8L3.1,304.8L5,304.8L6.4,304.3L8.2,303.5L9.6,302.3L10.7,300.4L11.2,299L11.8,297.7L12.6,296.8L13.6,296.2L13.6,296.2L17.2,299.9L18.8,301L21.2,301.5L23.6,301.5L25.8,301L30.4,299.2L32.5,297.9L33.6,297.5L39,298.1L41.5,297.2L46,294.1L48.2,293L49.8,292.8L50.6,291.7L51.4,290.4L52.5,289.9L60.4,291.7L61.4,292.4L62.5,293.5L63.9,295.5L64.1,295.9L64.9,296.1L65.5,296.1L66.3,295.7L66.8,295.7L70.6,297L72.5,297L73.9,297.3L74.4,297.3L75.2,296.8L75.5,296.4L75.5,295.9L75.7,294.8L75.7,294.6L77.4,294.6L77.4,292.6L78.2,291L79.3,290.1L84.7,289L85.5,288.6L86,288.2L86.8,287L86.8,286.8L87.6,285.1L87.9,285L88.2,281.8L88.2,280.6L88.4,279.5L89,278.2L89.8,277.7L91.1,277.5L91.9,277.3L95.2,274.4L96.8,270.9L96.8,266.9L94.4,262.7L92.8,261.2L92.5,260.6L92.8,259.7L93.6,258.6L94.9,257.2L96.5,256.4L99.8,255.7L101.4,254.6L105.2,249.8L107.3,248.7L108.1,248L109,247.1L109.2,246.2L109.2,245.1L108.7,244.7L108.4,244.1L109.2,242.8L110.8,241.2L112.7,240.1L116,239.4L117.1,239.2L119.2,239.5L120,241L120.6,243.4L120.6,246.7L120.3,249.8L118.9,255.5L118.7,258.3L118.9,261L119.8,262.7L121.4,263.8L123.3,264.7L125.2,265.6L127.3,267.8L132.2,274.9L133,275.3L134.3,275.8L137.8,277.8L139.2,277.8L139.7,277.5L140.8,276.6L141.4,276.4L141.6,276.4L141.9,276.6L142.4,277.5L143,278L144.3,278L146.5,278L147.6,278.4L149.5,280.9L148.4,283.5L146.2,286L145.1,289.1L144.6,289.7L144.6,289.9L145.9,290.1L147,290.4L151.3,292.8L151.9,293.2L152.4,293.9L153,295.5L154.3,297.9L155.1,299.3L155.4,300.8L155.7,302.6L155.1,303.9L154.9,305.2L154.6,306.8L157.6,305.9L160,307L162.1,307.5L164.6,304.4L166.5,300.8L166.7,299L165.9,297.2L165.1,296.8L163.5,296.4L162.7,296.1L162.1,295L161.6,293.2L160.8,292.2L160.5,292.1L160.5,291.7L160.5,291.5L160.8,291.1L163.2,289L161.9,285.1L162.1,283.9L164,282.4L165.7,281.8L166.5,281.5L167,280.4L167.3,279.1L167,276.7L167.3,275.3L168.9,273.3L174.3,269.4L174.8,268.3L175.1,267L175.6,266.1L176.5,265.4L177.3,265L178.1,264.3L178.9,263.2L180,259.2L182.1,254.6L182.7,252.2L182.7,250.9L181.6,247.1L181.6,245.4L181.6,244.1L181.6,243L180.5,242.3L180,240.8L180.5,238.1L181.9,235.5L183.2,234.2L186.7,233.7L188.3,234.2L188.3,235.5L190.2,237.3L190.8,237.5L191.6,237.2L192.1,236.6L192.4,235.9L192.9,235.1L194,234.2L194.5,234L194.8,234.8L195.4,245.2L195.1,246.9L195.4,247.4L195.9,248L197.5,248.9L198.3,249.5L199.7,253.5L200.8,254.8L202.1,255.9L204,256.4L212.6,256.6L214,256.1L215.1,254.4L215.1,253.5L215.1,252.2L215.1,251.1L216.1,250.2L216.7,250.2L218.6,251.3L219.7,251.5L221.3,250.9L226.1,248.4L229.4,247.8L231,248L232.3,248.4L234.2,249.6L234.8,251.3L234.8,253.5L235.3,255.9L236.4,257.3L239.4,259.9L240.2,261.9L240.2,264.3L242.6,264.3L245.8,263.2L248,261.7L248.8,259.7L248,257.7L244.8,254.6L244.2,253.5L244,252.6L244,251.5L244.2,250L244.8,248.9L246.4,247.6L246.9,246.9L247.5,244.5L246.9,243.2L245.8,242.7L242.3,242.1L240.2,241.2L239.1,239.7L240.2,237.5L239.6,237L239.4,236.4L239.1,235.7L239.1,234.6L239.4,233.5L239.4,231.1L239.4,230.3L240.2,229.4L241.8,227.8L242.3,226.8L243.1,223.3L243.7,222.6L244.2,222.1L251.5,220L253.4,220L254.5,220.9L254.8,222.2L254.2,224.5L254.5,225.7L257.7,226.8L258.3,227.2L258.8,227.8L259.1,228.3L259.9,228.7L261,228.9L263.7,228.7L269.1,230L270.4,229.8L271,228.9L271.2,228.1L272,225.4L272,222.6L271.5,220.4L269.9,219.1L266.6,218.7L265.3,217.3L264.7,215L265,214.1L265.8,213.2L266.6,211.9L266.6,210.4L266.6,209.1L266.9,208.2L268.3,207.3L269.1,206L269.1,204.5L268.5,202.9L268.3,201.2L269.9,199.3L270.4,198.6L270.7,197.7L271,194.2L273.4,196L276.6,196.4L284.2,194.3L285.5,194.2L286.6,194.5L292.6,197.9L293.1,199L292.8,199.7L291.2,201.2L290.7,201.7L291.2,202.7L292,202.7L293.6,202.1L294.4,202.5L296.6,203.6L297.4,203.8L298.8,203.2L299.6,203.2L300.1,203.6L301.5,204.7L302.3,205.1L303.1,205.1L305.5,204.1L306.9,204L309.6,204.1L310.6,204.7L311.7,204.5L312.8,203.4L314.4,200.4L314.7,200.3L315.5,199.9L316,199.5L316,199L316,197.9L316,197.3L317.4,194L318.2,190.1L319,188.8L323.9,184L325,183.2L330.4,181.5L335.5,180.6L338.2,181.2L340.6,182.3L342.8,182.5L345.5,179.9L346,179.1L346.6,178.6L347.4,178.4L348.7,178.8L349.3,178.9L349.5,179.5L350.1,179.9L350.6,180.2L351.4,180.4L352,180.2L352.8,179.9L354.9,179.3L356.8,179.1L360.6,179.9L361.4,180.1L361.9,179.9L363.3,180.1L365.7,181.9L367.1,182.5L367.9,182.3L369.5,181L370.3,180.4L373.6,179.9L376.3,177.8L379.5,176.2L382.7,175L388.1,174.7L395.7,170.8L397,170.6L400.6,169.8L402.4,170.4L402.2,171.9L402.2,173.4L400.6,175.4L396.2,178L395.4,179.9L396,181L396.2,182.3L396.5,184.9L397,186L397.6,187.1L397.6,188L396.5,189.1L397.3,189.5L399.2,189.9L400,190.3L400.8,191.2L401.1,191.7L401.6,192.3L402.7,192.7L405.7,192.9L407,193.6L407.6,196L407.8,197.5L407.6,198.2L407.3,199L407,200.3L407,201.6L407.3,202.3L407.6,202.9L408.4,203.4L410,204L411.4,204.1L412.7,204.9L413.2,207.3L414.9,210.8L417.3,213.2L420.5,214.5L422.2,214.7L424.6,215L426.7,216.7L428.1,217.3L429.2,217.4L433.5,216.9L437.3,217.3L437.8,217.6L439.4,218.6L440,218.9L440.8,218.9L441.9,218.4L442.4,218.4L443.2,218.6L445.1,219.1L449.2,221.9L466.7,223.2L472.9,224.6L477.8,227.6L479.4,228.1L482.4,228.3L489.9,226.7L493.2,227.4L497.8,227L498.3,227.2L499.4,228.3L499.9,228.9L503.2,228.9L512.3,231.8L513.4,232L514.5,231.8L514.5,232.6L514.5,233.3L514.2,234L513.7,234.6L513.7,237.3L513.4,237.9L512.9,239.2L511.5,239.9L509.6,239.9L506.9,240.1L505,241.9L503.7,244.1L501.8,246L498.3,248L496.4,249.3L495.6,249.6L494.5,249.8L493.7,250.7L492.6,253.1L491.5,255L491.3,255.5L489.4,256.8L489.9,257.7L490.5,259.2L490.7,261.7L491.8,263.2L492.1,264.7L492.6,265.6L494.8,265.4L493.7,263.4L494.8,263.8L497.2,263.9L498.3,264.5L500.2,265L501.8,266L504,268.1L505.9,268.5L508,268.3L509.1,268.5L509.9,268.7L510.2,269.6L510.4,270.7L508.3,274.5L501.3,280L499.9,280.9L498.3,283.3L498.8,283.9L498.8,284.6L498.8,285.3L498.3,286.2L497.8,286.4L496.7,287.5L497.5,288.6L498,289L498,289.1L498.3,289.3L500.2,291.7L502.3,291.5L504.8,290.2L506.9,289.9L507.5,289.7L508.8,291.7L508,293.9L507.7,296.1L506.9,297.5L504.8,302.8L504.5,306.4L505,307.7L505.6,308.6L507.7,309.9L510.2,310.1L511.5,310.6L514.5,312.8L515.3,313.3L520.4,315.7L526.4,325.9L527.2,326.8L528.3,327.5L529.1,327.5L529.1,327.7L528.5,329.1L527.2,330.9L525.6,332.7L522.1,333.1L519.1,331.6L515.3,331.8L515.8,331.1L516.7,329.8L518.8,329.7L521,330L522.6,329.7L521.8,329.3L521,328.6L520.2,327.3L517.5,325.9L518.8,325.3L518.5,323.5L517.5,321.3L516.4,320.1L510.4,313.7L509.1,312.6L505,310.8L503.4,310.4L502.1,311.7L501.3,314.1L501.5,316.1L503.7,316.4L501,317.7L500.5,318.2L500.2,319L498,319.3L497.2,319.7L495.9,321.1L494,322.4L492.1,323.1L490.2,322.2L491.3,322L492.6,321.3L494,320.6L494.2,319.7L493.7,317.9L490.7,317.2L489.7,315.7L488.3,316.1L481,314.4L480.5,314.1L478.6,312.2L478,311.9L477.2,312.1L474.8,313L473.7,314.6L473.2,315L472.4,314.6L471.8,313L471,312.8L470.2,313.2L470.2,314.2L470.5,315.2L471.3,315.7L471.3,316.4L469.7,316.6L468.1,317.5L467.2,319L467.5,320.8L468.9,321.7L470.5,321.3L473.2,320.1L472.4,321.5L469.7,323.7L469.1,325.5L468.3,326.8L466.4,327.3L460.5,327.5L457.8,328L445.6,336.2L433,342.3L425.4,345L424.3,346.1L423.5,346.5L420.8,347.2L418.6,348.5L417.8,348.6L418.4,347.2L419.2,345.7L419.7,344.5L419.2,343.6L420,343.8L420.5,343.6L420.8,343L420.8,342.1L421.3,342.1L421.6,343L422.2,343.4L422.4,343.4L423,342.9L421.9,341.4L422.7,341.4L423.5,341.4L424.3,341.2L424.3,341.4L424.6,341.2L424.9,341.6L424.9,342L425.1,342.1L424.9,342.1L424,342.1L424,342.9L425.7,342.7L425.9,341.4L426.2,339.8L426.7,339.1L428.1,339.1L429.2,338.5L430,337.6L430.5,336.2L429.7,336.5L427.8,338L427.3,338L425.9,336.5L425.4,335.6L425.1,334L423.5,334.9L421.3,336.7L420.3,338.7L420.8,340L420.8,340.7L419.7,340.5L418.4,339.4L417.8,340L417.3,340L416.8,337.6L415.9,339.4L416.2,340.3L418.9,341.4L418.9,342.1L417.8,342.7L416.5,342.9L415.7,342.5L415.7,341.4L413.2,341.4L410.3,343L407.6,345.7L406,348.6L406,349.4L406.5,349.4L405.7,350.4L405.4,351.3L405.7,352.2L406.5,353.1L405.7,354L405.7,355L405.7,355.7L405.4,356.8L404.9,357.1L404.1,357.1L403.8,357.5L404.3,358.9L403.5,360.4L403.3,361.4L402.7,362.3L401.1,362.5L400,362.2L399.2,361.4L398.7,361.8L398.1,364.1L398.9,365L399.7,367.2L400.6,367.7L401.4,367.2L401.9,365.9L402.2,364.5L401.9,363.2L403.3,364L403.5,365L403.5,366.5L403.8,368.5L403,368.8L402.7,369.4L403.3,369.9L403.8,370.6L403.5,372.2L404.3,373.5L405.7,374.2L407,374.2L406.8,373.9L406.5,373.7L407.6,372.8L409.2,371L410,370.6L409.5,372.2L409.7,373.9L410.5,375.3L411.1,376.9L411.1,380.5L411.6,384.4L410.8,384.1L410,383.7L410,383L410,381.9L410,381.6L409.2,383.9L409.2,385.7L410,386.8L411.6,386.6L411.4,386.2L411.4,385.9L411.1,385.2L412.4,386.4L413.5,388L414.3,389.6L415.1,391.1L415.1,391.8L414.6,391.8L414.3,392L414.1,392.3L413.5,392.5L414.6,393.9L415.7,392.3L415.9,391.1L415.7,389.8L414.6,388.2L415.7,389.1L417,389.8L418.1,390.5L417.8,391.8L418.9,393.1L419.5,393.4L420.3,393.9L421.9,395.9L423.5,397.7L424.3,396.8L423.8,397L423.5,396.8L423.5,396.1L424.6,396.1L425.7,396.5L426.5,397.2L427,398.2L427,399.3L426.2,400.4L426.5,401.1L425.9,402.2L425.7,402.7L425.4,403.4L425.1,403.4L424.3,403.4L424,404.7L424,408.1L423.5,409.7L422.7,411.5L420.3,414.2L420.3,413.6L420,412.5L419.5,411.5L418.9,410.6L420,408.1L420.3,406.8L420,405.6L418.9,405.2L418.1,405.8L417.6,406.7L417.3,407.4L416.5,409.2L416.5,410L418.1,410.9L418.1,411.7L417.6,412.5L416.8,412.7L416.8,413.4L417.3,413.6L418.1,414L418.9,414.2L418.1,415.9L416.8,417L415.1,417.2L413.8,415.9L413,414.7L411.1,412.7L409.7,411.8L408.9,411.8L407,413.4L407,414.2L408.1,414.2L406,421.5L405.4,425.6L406,430.2L407,433.6L407.6,435.2L408.4,435.9L408.4,437.1L408.1,444.6L408.4,449.2L410.5,459.9L410.8,462.5L411.1,463.2L411.4,463.9L412.4,465.4L412.7,465.9L412.7,468L413.2,470.1L414.6,474L416.2,477L418.4,479.9L421.3,482.9L423,485.7L425.4,488.3L428.1,490.6L430,491.3L434.3,497.1L436.5,499.4L438.9,501.2L440.2,502.1L443.5,503.1L443.8,503.3L447.3,503.8L448.6,504.5L451.6,507L456.7,509.1L457.5,510.2L458.1,511L481,531.2L489.7,536.7L491.3,537.2L492.1,538.2L495.6,539.5L497.5,540.7L498.3,540.2L498.8,539.5L499.1,538.9L499.4,538.9L499.6,538.8L499.9,538.4L500.2,538.4L500.7,538.6L501,539.1L501,539.5L501.3,539.8L502.6,540.5L504,542.3L504.8,543.8L505.3,544.7L506.9,545.1L508.3,545.9L508.8,547.3L508.3,548.9L519.1,576.6L520.2,578.7L520.4,579.4L521,583L521.2,583.9L522.3,585.5L524.5,590.7L525.6,594.3L526.8,602L275.4,602ZM221.6,602L220.7,600.7L222.6,596.9L224,596.1L225.1,597.1L225.1,597.1L225.1,597.3L225.3,597.4L225.6,597.6L226.1,599.2L225.1,601.1L224.3,602L221.6,602ZM413.5,352.1L414.9,349.9L416.2,349L417.6,349.4L419.2,351L418.4,350.4L417.3,350.3L415.1,350.1L411.1,358.2L411.1,357.5L411.6,355.5ZM411.6,346.3L413,346.3L414.3,347.2L414.1,348.5L413.5,349L412.2,349.7L411.1,349.4L410.8,347.9ZM-2,261L-0.9,259L-2,257.1L-2,162.4L-2,162.4L-0.1,160.7L0.1,160.5L1.5,158.1L3.7,155.9L8.8,152.1L8.5,149.3L8.8,147.1L10.4,145.6L10.9,145.6L11.5,145.4L12.6,143.9L13.4,143.6L13.9,143.4L14.7,142.8L15.3,141.7L14.5,140.6L13.4,139.4L12.3,138.5L10.9,139.3L2,140.2L2.3,138.7L3.4,137L4.5,135.5L6.4,134.4L6.4,132.3L8.5,131.8L9.6,131.2L10.7,130.1L11.2,129.2L10.9,127.8L10.1,126.3L10.1,125.2L11.5,124.7L12,124.3L12.8,124.1L13.4,124.3L14.2,124.7L16.1,125L19.9,124.3L21.5,124.7L22.6,125.2L23.6,125.4L25.5,125.2L24.2,128.4L24.7,130.3L26.3,131.2L28.5,131.8L28.8,132.1L29,132.5L29.3,132.9L29.8,133.1L30.4,133.1L33.1,131.8L35.2,131.4L37.4,131.4L40.4,131.6L41.2,131.4L42.5,130.8L43.6,129.3L43.9,128.8L44.2,127.8L44.2,127.1L43.6,126.7L43.3,126.3L43.1,125.8L43.1,125L43.9,124.8L45.2,125.2L45.5,125.4L46,125.8L47.1,126L48.2,124.8L48.5,124.7L48.5,124.5L48.5,124.1L48.5,123.9L47.9,123.2L47.7,122.6L47.7,122.2L48.2,122L49,122.2L49.6,122L49.8,121.5L49.8,120.3L49.6,120.3L48.5,119.4L48.2,119.2L51.2,117L51.4,116.6L53.3,115.5L56,114.5L59.8,113.4L61.4,113.2L60.6,116L59.8,116.8L57.9,116.8L57.7,116.8L60.6,118.3L61.7,118.8L63.3,119L66.6,118.3L69.5,117.7L70.9,117L72.2,115.5L73.6,113.4L74.7,114L79.3,114.1L79.8,114.7L80.1,115.7L80.3,116.8L80.3,117.2L90.1,117.2L93.6,116.4L94.4,116L94.6,115.5L94.9,114.9L95.5,114.1L96.3,113.8L97.9,112.8L99.2,112.5L99.8,111.9L100,111.3L100.3,111.1L104.4,110.4L105.7,110.4L107.9,111L108.7,111.1L109,111.5L109.5,112.6L110,113.8L110.8,114.1L113.5,114.9L118.4,114.9L118.7,114.9L120.6,114.5L120.8,114L121.6,112.1L123.8,110.6L126.2,110.4L127.3,111.5L128.1,113L128.4,113.2L128.9,114L130,113.6L130.3,113.4L130.6,112.8L130.6,111.9L130.6,111.1L130.8,110.4L130.6,110L130.6,109.6L130.3,109.1L130.6,108.5L130.8,108.3L131.1,108.1L131.6,108.1L131.6,108.3L131.6,108.9L132.2,109.3L132.4,106.6L131.9,106.4L131.6,106.3L130.6,106.1L129.7,105.9L126,106.4L124.9,107L123.8,107.8L122.7,108.3L121.4,108.3L119.8,107.6L117.9,106.1L117.6,105.9L116.2,105.5L116.8,104.4L116.5,103.4L116.2,102.5L116.5,101.7L117.1,100.8L118.9,99.9L119.8,99.1L120.3,96.8L120.8,96.1L121.6,94.6L122.5,94.2L123.3,94.2L127.3,93.5L128.4,92.9L127.6,91L128.9,90.4L130.8,90.4L132.2,91.2L132.2,91.9L132.4,93.5L132.4,94.8L133.3,95.3L134.3,94.8L134.6,92.3L135.4,91.6L136.2,91.9L137,92.9L137.6,94.2L138.1,95.2L138.9,95.3L139.7,95.2L140.5,95.3L141.1,96.5L140.8,96.8L139.7,98.4L139.5,99.1L139.7,100L140.5,100.8L140.5,101.6L140.8,102.3L144.9,102.3L144.1,101.6L144.9,99.3L146.8,99.5L149.2,100.8L151.1,102.7L149.7,103.1L149.7,103.8L150.8,104.9L151.1,104.9L153.2,106.6L154.9,107L157.8,106.8L160.5,105.9L161.9,104.6L163.2,104L171.6,104.9L175.6,104.9L176.7,106.6L179.7,106.6L182.4,107.2L203.2,120.2L203.5,122L203.7,122.8L205.9,126.2L208.6,127.3L210.7,129.3L210.7,134L209.9,135.7L207,139.3L206.7,140.4L206.4,142.2L206.2,143L203.5,146.2L201,150.3L199.9,152.3L198.6,156.1L198.3,159.8L198.9,161.6L199.7,163.1L200.5,165L200.5,167.2L199.7,168.7L198.6,170L197.8,171.1L197.8,172.1L199.4,172.6L204,173.4L205.6,173L207,173.4L211,172.8L212.1,173L226.4,177.5L226.1,178.8L226.7,178.9L226.9,178.9L227.2,179.3L227.2,179.9L226.9,181L226.7,183.6L226.7,184.7L226.7,185.8L227.8,187.1L229.4,188.6L237.5,191.2L240.4,194L242.1,194.9L245.3,196L246.4,196L246.9,196L248.8,195.4L252.1,193.8L252.9,192.7L253.1,191.9L253.1,191L253.4,189.5L254.8,187.7L255.8,187.3L257.2,187.9L259.1,187.7L259.3,185.6L260.4,183L262.3,181L264.5,179.7L265,179.5L265.6,179.7L265.8,179.9L266.6,180.8L268.3,183.4L270.7,185.3L271.5,186.2L271.8,188L271,191.7L271,194.2L271,194.2L270.7,197.7L270.4,198.6L269.9,199.3L268.3,201.2L268.5,202.9L269.1,204.5L269.1,206L268.3,207.3L266.9,208.2L266.6,209.1L266.6,210.4L266.6,211.9L265.8,213.2L265,214.1L264.7,215L265.3,217.3L266.6,218.7L269.9,219.1L271.5,220.4L272,222.6L272,225.4L271.2,228.1L271,228.9L270.4,229.8L269.1,230L263.7,228.7L261,228.9L259.9,228.7L259.1,228.3L258.8,227.8L258.3,227.2L257.7,226.8L254.5,225.7L254.2,224.5L254.8,222.2L254.5,220.9L253.4,220L251.5,220L244.2,222.1L243.7,222.6L243.1,223.3L242.3,226.8L241.8,227.8L240.2,229.4L239.4,230.3L239.4,231.1L239.4,233.5L239.1,234.6L239.1,235.7L239.4,236.4L239.6,237L240.2,237.5L239.1,239.7L240.2,241.2L242.3,242.1L245.8,242.7L246.9,243.2L247.5,244.5L246.9,246.9L246.4,247.6L244.8,248.9L244.2,250L244,251.5L244,252.6L244.2,253.5L244.8,254.6L248,257.7L248.8,259.7L248,261.7L245.8,263.2L242.6,264.3L240.2,264.3L240.2,261.9L239.4,259.9L236.4,257.3L235.3,255.9L234.8,253.5L234.8,251.3L234.2,249.6L232.3,248.4L231,248L229.4,247.8L226.1,248.4L221.3,250.9L219.7,251.5L218.6,251.3L216.7,250.2L216.1,250.2L215.1,251.1L215.1,252.2L215.1,253.5L215.1,254.4L214,256.1L212.6,256.6L204,256.4L202.1,255.9L200.8,254.8L199.7,253.5L198.3,249.5L197.5,248.9L195.9,248L195.4,247.4L195.1,246.9L195.4,245.2L194.8,234.8L194.5,234L194,234.2L192.9,235.1L192.4,235.9L192.1,236.6L191.6,237.2L190.8,237.5L190.2,237.3L188.3,235.5L188.3,234.2L186.7,233.7L183.2,234.2L181.9,235.5L180.5,238.1L180,240.8L180.5,242.3L181.6,243L181.6,244.1L181.6,245.4L181.6,247.1L182.7,250.9L182.7,252.2L182.1,254.6L180,259.2L178.9,263.2L178.1,264.3L177.3,265L176.5,265.4L175.6,266.1L175.1,267L174.8,268.3L174.3,269.4L168.9,273.3L167.3,275.3L167,276.7L167.3,279.1L167,280.4L166.5,281.5L165.7,281.8L164,282.4L162.1,283.9L161.9,285.1L163.2,289L160.8,291.1L160.5,291.5L160.5,291.7L160.5,292.1L160.8,292.2L161.6,293.2L162.1,295L162.7,296.1L163.5,296.4L165.1,296.8L165.9,297.2L166.7,299L166.5,300.8L164.6,304.4L162.1,307.5L160,307L157.6,305.9L154.6,306.8L154.9,305.2L155.1,303.9L155.7,302.6L155.4,300.8L155.1,299.3L154.3,297.9L153,295.5L152.4,293.9L151.9,293.2L151.3,292.8L147,290.4L145.9,290.1L144.6,289.9L144.6,289.7L145.1,289.1L146.2,286L148.4,283.5L149.5,280.9L147.6,278.4L146.5,278L144.3,278L143,278L142.4,277.5L141.9,276.6L141.6,276.4L141.4,276.4L140.8,276.6L139.7,277.5L139.2,277.8L137.8,277.8L134.3,275.8L133,275.3L132.2,274.9L127.3,267.8L125.2,265.6L123.3,264.7L121.4,263.8L119.8,262.7L118.9,261L118.7,258.3L118.9,255.5L120.3,249.8L120.6,246.7L120.6,243.4L120,241L119.2,239.5L117.1,239.2L116,239.4L112.7,240.1L110.8,241.2L109.2,242.8L108.4,244.1L108.7,244.7L109.2,245.1L109.2,246.2L109,247.1L108.1,248L107.3,248.7L105.2,249.8L101.4,254.6L99.8,255.7L96.5,256.4L94.9,257.2L93.6,258.6L92.8,259.7L92.5,260.6L92.8,261.2L94.4,262.7L96.8,266.9L96.8,270.9L95.2,274.4L91.9,277.3L91.1,277.5L89.8,277.7L89,278.2L88.4,279.5L88.2,280.6L88.2,281.8L87.9,285L87.6,285.1L86.8,286.8L86.8,287L86,288.2L85.5,288.6L84.7,289L79.3,290.1L78.2,291L77.4,292.6L77.4,294.6L75.7,294.6L75.7,294.8L75.5,295.9L75.5,296.4L75.2,296.8L74.4,297.3L73.9,297.3L72.5,297L70.6,297L66.8,295.7L66.3,295.7L65.5,296.1L64.9,296.1L64.1,295.9L63.9,295.5L62.5,293.5L61.4,292.4L60.4,291.7L52.5,289.9L51.4,290.4L50.6,291.7L49.8,292.8L48.2,293L46,294.1L41.5,297.2L39,298.1L33.6,297.5L32.5,297.9L30.4,299.2L25.8,301L23.6,301.5L21.2,301.5L18.8,301L17.2,299.9L13.6,296.2L13.1,295.3L12.8,294.2L12.3,292.2L11.5,290.1L10.9,289L10.7,288.6L5.5,282.9L3.9,282.2L3.4,282.4L2.8,282.9L2.3,283.3L1.5,283.3L1,282.8L0.7,282.4L1,282L1,281.1L1,279.8L1,278.9L0.7,278.9L1,278.4L1.5,277.7L2,276.7L2.3,276L1,274.9L-2,274.3L-2,261ZM201,150.3L201.8,151.2L202.9,152.3L202.6,154L202.9,154.9L203.5,155.9L204.3,157.4L204.3,158.1L203.5,159.8L203.5,160.7L205.6,162.2L207.5,164.6L208.3,167.4L207.8,170.2L205.6,173L204,173.4L199.4,172.6L197.8,172.1L197.8,171.1L198.6,170L199.7,168.7L200.5,167.2L200.5,165L199.7,163.1L198.9,161.6L198.3,159.8L198.6,156.1L199.9,152.3ZM602,388.9L601.2,387L600.9,385.2L600.1,383.9L599,383L594.4,380.5L586.3,374.2L582.5,369.2L581.5,368.6L580.1,367.2L579.6,365.8L580.6,364.9L579.8,364L577.1,361.8L578.5,363.4L578.8,363.6L578.5,364.5L577.7,365L576.9,365L576.3,364.5L575.2,363.2L567.1,359.1L564.2,358.6L562.8,357.7L561.7,357.5L560.4,358.6L558.8,361.1L557.4,364.3L556.3,367.9L555.5,375.3L554.7,378.7L554.5,378.9L554.5,379.2L552.6,381.8L550.4,380.9L551.8,382.3L551.5,383.9L550.4,385.5L549.3,386.6L548.8,385.9L548.5,386.8L548.5,387.5L548.8,389.5L548.5,389.3L548,389.1L547.7,388.9L547.7,389.5L549.1,390.9L549.6,393.1L549.3,395.6L548.2,397.5L547.4,398.2L546.9,398.1L546.4,397.7L545.5,397.5L544.5,397.9L543.7,398.8L543.1,399.7L542.6,400.6L542,400.6L542.3,398.4L542.8,397.5L543.4,396.6L542.6,394.7L541,393.2L541,392.3L541,391.6L541,391.1L540.1,391.1L540.4,392.3L539.9,394.1L540.4,395L541.2,395.6L541.8,395.6L542.3,395.9L542.6,396.8L541.8,397.7L540.7,399.7L540.4,400.2L540.1,399.9L539.6,399.9L539.9,400.6L540.1,401.5L539.9,402.4L539.6,403.4L539.1,403.3L538.8,403.3L538.8,403.6L539.1,404.1L539.1,404.9L538.8,404.9L538.5,405L538.5,405.2L538.5,405.6L537.7,405.2L536.1,405.6L535,405.6L535.6,406.1L535.8,406.7L536.4,407.7L536.1,407.7L536.1,408.4L536.4,408.4L536.4,409.2L535.8,409.5L535.6,410L535,411.3L535,412.2L535.3,412.4L535.3,412.5L535,413.4L535.8,413.4L536.1,413.6L536.6,414.2L536.9,414.9L534.2,415L532.9,414.9L531.8,414.2L531.8,414.5L531.8,414.7L531.2,414.9L531,413.3L530.2,413.1L529.3,413.3L528.8,412.7L528.3,413.4L529.1,413.8L529.9,414.5L530.2,415.4L529.9,416.5L530.4,418.3L531,418.6L529.6,419.2L529.3,418.3L529.6,416.5L529.3,414.9L528.8,414.5L526.4,413.6L525.6,413.4L525.8,413.1L526.1,412.4L526.1,412L525.8,412L525.3,412L525.6,411.3L525.3,410.6L524.5,410.8L523.1,410.4L522.1,409.5L521,408.4L521.5,407.7L522.3,408.8L523.4,409.2L524.5,408.6L525.3,407L523.1,407.5L522.3,407.4L521.5,406.3L521.5,405.6L521.8,405.4L522.3,404.7L522.6,404.1L521.8,403.1L520.2,399L516.9,395.7L513.1,390.2L512.6,389.6L511.5,388.6L510.2,387.7L508.8,387.3L509.1,386.8L509.4,385.7L509.6,385.2L508,382.7L509.9,381.4L516.4,380.9L515,380.1L513.1,380L509.6,380.1L508,380.7L506.9,380.5L506.7,379.8L506.9,378.5L506.9,377.6L506.9,376.9L506.1,376.5L506.7,375.8L506.7,375.3L506.4,374.7L505.6,374.2L505.6,373.7L506.4,373.1L506.7,372.6L506.7,371.7L506.1,370.6L506.7,369.5L506.7,368.5L506.1,367.6L505,367L505.3,366.3L505.9,365.8L506.4,365.4L507.2,365.4L507.2,364.9L506.4,364.5L505.9,364L505.3,363.4L505,362.5L505.9,362.3L506.7,362L507.7,361.1L506.9,360.7L504.8,360.5L504.2,360.4L503.4,359.6L502.6,358.4L502.6,357.1L503.7,356.8L503.7,356L502.6,355.1L500.5,348.6L500.7,348.5L501,348.3L501,347.9L500.7,347.6L500.7,347.4L500.7,347.2L501,346.5L499.9,343.6L499.6,342L499.9,340.7L500.5,340.7L501.3,341.2L504.8,342.9L506.1,343L509.1,346.3L511.5,346.1L518.8,345.7L522.6,348.1L523.4,349L524.8,349.5L528.8,350.1L529.3,349.4L530.2,348.5L531.2,347.4L534.7,345.9L535.8,344.5L534.2,342.7L534.2,341.4L534.5,340.7L535,340.3L536.1,340.7L538,341.1L539.1,341.6L540.1,342.7L542,343.9L543.9,344.7L545.8,344.8L546.1,344.8L548,344.5L551.5,342.7L553.4,342.1L555,342.7L558,343.9L561.5,344.5L565,344.3L568,342.7L569.3,341.2L572.3,339.1L573.1,337.3L573.6,335.8L573.9,333.5L573.9,332.9L574.4,331.6L575,330.6L576.9,328.4L577.7,327.3L578.8,325.1L579.3,324.4L579.6,324.2L580.6,323.9L581.5,324.4L581.5,326L581.5,328L581.5,329.5L582.3,330.7L583.1,331.8L585.8,333.8L586.3,334L586.9,334.4L587.1,334.9L587.4,335.8L587.1,337.6L587.1,338.2L588.7,339.6L595.5,342.7L596.8,345.6L599.8,346.3L602,345.4L602,388.9ZM602,485.8L601.2,486L599.5,485.5L598.5,484.3L598.7,482.7L599,483.7L599.5,484.5L600.1,484.8L600.1,484.8L600.9,484.5L601.2,484.5L601.7,484.8L602,485.3L602,485.8ZM602,484.5L602,484.5L601.7,483.6L600.6,482L601.2,481.8L601.4,482L601.7,482L602,482.3L602,484.5ZM602,440.9L602,440.9L594.1,431.3L592.8,429L592,426.5L592.3,426.5L592.5,426.6L595.5,430L600.4,437.3L602,438.6L602,440.9ZM570.4,441.1L576.6,447.6L577.1,449.6L575.5,449.8L573.4,447.8L570.9,444.6L569.8,443.9L569.8,443.2L571.5,443.5L572,443.9L569.8,441.2L568.8,440.2L567.4,439.6L566.9,440.7L566.1,441.1L565,440.9L564.2,440.2L564.2,439.6L564.7,439.6L564.7,439.3L564.4,438.7L565.8,437.1L565.3,435L563.1,431.6L562.8,430.2L562.3,427L562.3,425L563.6,426.1L565.5,427L566.9,428.4L566.3,430.9L566.6,431.8L566.9,433.4L567.4,436.3L567.7,437.3ZM592.5,418.6L592.5,419.5L592.8,419.9L593.6,420.8L592.5,420L591.4,419.7L590.4,419.7L589.6,420L586.3,416.5L587.4,416.3L588.2,416.5L589,416.7L589.8,417.2L589.8,416.5L589.6,416.1L589.6,415.9L589.6,415.6L589.6,414.9L590.6,415.9L590.9,416.5L591.4,416.5L590.6,414.3L589.8,413.4L589,412.7L588.7,412.4L588.5,411.3L590.1,411.5L591.4,412L591.2,411.7L590.9,410.6L592.5,410.6L593.6,411.5L593.6,412.5L592.5,413.4L592.5,414.2L593.1,414.5L596,417.4L597.9,418.4L598.7,419.3L600.9,422.9L601.4,425L600.6,426.5L598.7,424.7L595,420.6ZM575.5,430.9L575,431.8L575.2,432.7L575.5,433.1L576.6,432.3L577.1,433.8L576.6,434.5L576.1,435.2L575.5,435.4L574.7,435.4L572.5,435.4L569,431.5L566.6,426.1L566.9,421.5L566.3,421.3L566.3,421.1L566.1,420.9L565.8,420.8L565,421.1L564.7,420.4L564.4,419L564.2,415.6L564.2,414.7L563.6,414.2L562.8,414.2L561.7,412.7L560.7,406.5L559,404.9L559,404.3L559.3,404L559.6,403.4L559,401.5L559.6,401.1L561.5,401.8L562,402.4L563.4,404.3L563.9,404.9L565.3,404.9L566.1,404.9L566.6,404.1L566.9,402.7L566.6,402L566.1,400.4L566.3,399.3L567.4,400.6L568,399.9L566.3,398.4L565.3,396.5L563.1,390.2L562.6,389.3L558.5,384.4L558,383.2L557.7,381.6L558.8,379.4L559.6,378L560.4,376.9L562,376.5L563.6,377.1L564.2,378.3L563.9,382.7L564.2,385.2L564.7,387.1L566.1,391.1L568,394.8L568.2,395.4L569.3,396.1L570.9,396.5L572,396.8L572.5,398.2L572.3,400L571.7,402L570.9,403.4L571.5,404.1L570.7,405.9L570.7,407.5L570.9,410.9L571.7,414L572,415.8L570.9,416.5L571.2,417.5L572.3,419.2L572.5,420L572.5,421.1L572,422.4L572,423.8L572.5,426.1L573.4,427.7L574.7,429.1ZM591.2,401.1L590.1,400.8L586.3,398.2L584.2,397.5L583.9,396.6L583.9,395L583.9,391.3L583.6,390.4L582.3,391.1L582.3,391.8L583.3,392.5L581.2,392.7L575.2,391.8L573.4,391.1L571.5,389.6L569.8,387.7L568.8,385.9L569.6,385L570.1,384.6L570.9,384.4L571.7,384.4L572,383.9L572,383L572,381.9L572.8,381.6L575.5,381.4L576.9,380.9L576.1,379.4L577.1,378L577.4,377.1L577.7,376.2L577.4,375.3L577.1,374.6L577.1,373.7L578.2,372.8L578.2,371.7L578.2,370.6L577.7,370.1L577.1,369.9L578.2,368.6L579.3,368.6L581.7,369.9L580.9,369.9L580.6,369.9L580.9,370.6L580.9,371.3L581.5,371.7L581.7,372.1L582.8,374L583.9,376.5L581.7,377.4L583.1,378.2L585.2,378.5L586.9,378L587.4,380L586.3,383.7L586.9,385.9L587.9,387L589.3,387.3L592.5,387.3L592.5,390.4L597.1,394.7L598.2,397.5L597.7,397.5L596.8,398.2L595.8,398.4L595,398.2L594.1,397.5L593.1,398.2L593.1,399L594.1,399.9L593.9,400.6L592.5,400.9ZM593.9,469.8L595,470.5L596.3,471.7L596.3,472.4L595.2,472.4L594.4,472.6L593.9,473.1L593.1,473L592.3,471.9L592.5,471L593.3,471L593.6,470.7L593.6,470ZM583.1,464.7L585.2,466.2L586.6,468L586.3,468.4L585,467.7L582,464.8L581.7,463.9ZM596.8,460.8L597.4,461.8L597.9,463.8L597.1,464.5L595.8,463.9L595,463.4L593.6,462.2L593.9,461.3L594.7,460L594.1,456.9L594.4,456.7L595,456.5L595.8,456.5L596.6,456.9L597.1,457.9L597.4,459L596.8,459.7L596.8,460.4ZM555.3,430.9L556.9,429L558,429.3L558,430.2L557.7,430.9L556.6,431.1L556.3,431.3L556.3,431.5L556.3,431.8L556.3,432.3L556.3,432.9L556.3,433.6L556.3,433.8L556.9,434.8L557.4,436.1L556.9,436.3L555.8,435.7L555,435.4L554.5,434.7L554.5,433.8L554.7,433.1ZM602,345.4L599.8,346.3L596.8,345.6L595.5,342.7L588.7,339.6L587.1,338.2L587.1,337.6L587.4,335.8L587.1,334.9L586.9,334.4L586.3,334L585.8,333.8L583.1,331.8L582.3,330.7L581.5,329.5L581.5,328L581.5,326L581.5,324.4L580.6,323.9L579.6,324.2L579.3,324.4L578.8,325.1L577.7,327.3L576.9,328.4L575,330.6L574.4,331.6L573.9,332.9L573.9,333.5L573.6,335.8L573.1,337.3L572.3,339.1L569.3,341.2L568,342.7L565,344.3L561.5,344.5L558,343.9L555,342.7L553.4,342.1L551.5,342.7L548,344.5L546.1,344.8L545.8,344.8L543.9,344.7L542,343.9L540.1,342.7L539.1,341.6L538,341.1L536.1,340.7L535,340.3L534.5,340.7L534.2,341.4L534.2,342.7L535.8,344.5L534.7,345.9L531.2,347.4L530.2,348.5L529.3,349.4L528.8,350.1L524.8,349.5L523.4,349L522.6,348.1L518.8,345.7L511.5,346.1L509.1,346.3L506.1,343L506.1,343L506.4,342.7L506.1,341.8L506.7,340.7L506.7,340L505.9,339.8L505.3,339.4L505,338.7L504.8,337.6L506.1,338L512.6,337.1L518.5,336.2L518.5,335.6L517.7,334.4L516.7,333.1L515.3,331.8L519.1,331.6L522.1,333.1L525.6,332.7L527.2,330.9L528.5,329.1L529.1,327.7L529.1,327.5L528.3,327.5L527.2,326.8L526.4,325.9L520.4,315.7L515.3,313.3L514.5,312.8L511.5,310.6L510.2,310.1L507.7,309.9L505.6,308.6L505,307.7L504.5,306.4L504.8,302.8L506.9,297.5L507.7,296.1L508,293.9L508.8,291.7L507.5,289.7L506.9,289.9L504.8,290.2L502.3,291.5L500.2,291.7L498.3,289.3L498,289.1L498,289L497.5,288.6L496.7,287.5L497.8,286.4L498.3,286.2L498.8,285.3L498.8,284.6L498.8,283.9L498.3,283.3L499.9,280.9L501.3,280L508.3,274.5L510.4,270.7L510.2,269.6L509.9,268.7L509.1,268.5L508,268.3L505.9,268.5L504,268.1L501.8,266L500.2,265L498.3,264.5L497.2,263.9L494.8,263.8L493.7,263.4L494.8,265.4L492.6,265.6L492.1,264.7L491.8,263.2L490.7,261.7L490.5,259.2L489.9,257.7L489.4,256.8L491.3,255.5L491.5,255L492.6,253.1L493.7,250.7L494.5,249.8L495.6,249.6L496.4,249.3L498.3,248L501.8,246L503.7,244.1L505,241.9L506.9,240.1L509.6,239.9L511.5,239.9L512.9,239.2L513.4,237.9L513.7,237.3L513.7,234.6L514.2,234L514.5,233.3L514.5,232.6L514.5,231.8L515.6,231.8L520.7,233.1L521.8,233.1L526.6,232.2L528.8,232.6L535.6,235.9L536.9,236L538,235.9L539.3,235.5L540.7,235.7L542,236L543.1,236.6L547.2,240.1L548,240.5L548.2,240.5L555.3,240.6L564.2,240.8L566.6,240.3L567.4,240.5L568,241L568,241.6L568.5,242.1L569.8,242.7L570.9,243.2L572,243.4L574.7,242.8L575.8,244.1L576.6,246.2L577.4,247.1L578.8,246.5L579,245.6L579.6,244.7L580.1,242.7L581.2,241L582,240.8L583.6,240.6L584.4,240.5L585.2,239.9L586.6,238.3L587.1,238.3L587.4,238.3L587.9,238.4L588.5,237L589.3,236L589.8,235.3L590.1,234.8L591.4,234.2L592.3,234.6L594.1,234.4L595.8,233.5L596,233.1L596.8,231.8L597.7,230L598.2,228.3L598.7,226.5L599.5,224.6L600.9,222.8L601.7,222.4L602,222.5L602,345.4ZM419.2,511.6L417,510.3L415.9,508.2L416.8,505.6L417.8,504.5L418.6,503.7L421.1,502.4L423.2,502.1L423.8,503.1L424,504.9L423.8,506.7L423.2,507.7L423.2,507.9L423,508.1L423,508.2L422.7,508.6L423,508.9L421.6,511.2ZM44.7,527L44.4,527.4L43.3,528.2L42.3,529.7L40.6,529.5L39.6,529.1L39.6,527.9L39.8,526.7L41.2,525.4L42.5,524.9L43.9,525.8Z" fill="#f5f0e6"/>
<path d="M193.6,602L193.7,601.9L193.8,602M225.1,597.1L225.1,597.3L225.3,597.4L225.6,597.6L226.1,599.2L225.1,601.1L224.3,602M221.6,602L220.7,600.7L222.6,596.9L224,596.1L225.1,597.1M413.5,352.1L414.9,349.9L416.2,349L417.6,349.4L419.2,351L418.4,350.4L417.3,350.3L415.1,350.1L411.1,358.2L411.1,357.5L411.6,355.5L413.5,352.1M411.6,346.3L413,346.3L414.3,347.2L414.1,348.5L413.5,349L412.2,349.7L411.1,349.4L410.8,347.9L411.6,346.3M600.1,484.8L600.9,484.5L601.2,484.5L601.7,484.8L602,485.3M602,485.8L601.2,486L599.5,485.5L598.5,484.3L598.7,482.7L599,483.7L599.5,484.5L600.1,484.8M602,484.5L602,484.5L601.7,483.6L600.6,482L601.2,481.8L601.4,482L601.7,482L602,482.3M602,440.9L602,440.9L594.1,431.3L592.8,429L592,426.5L592.3,426.5L592.5,426.6L595.5,430L600.4,437.3L602,438.6M570.4,441.1L576.6,447.6L577.1,449.6L575.5,449.8L573.4,447.8L570.9,444.6L569.8,443.9L569.8,443.2L571.5,443.5L572,443.9L569.8,441.2L568.8,440.2L567.4,439.6L566.9,440.7L566.1,441.1L565,440.9L564.2,440.2L564.2,439.6L564.7,439.6L564.7,439.3L564.4,438.7L565.8,437.1L565.3,435L563.1,431.6L562.8,430.2L562.3,427L562.3,425L563.6,426.1L565.5,427L566.9,428.4L566.3,430.9L566.6,431.8L566.9,433.4L567.4,436.3L567.7,437.3L570.4,441.1M592.5,418.6L592.5,419.5L592.8,419.9L593.6,420.8L592.5,420L591.4,419.7L590.4,419.7L589.6,420L586.3,416.5L587.4,416.3L588.2,416.5L589,416.7L589.8,417.2L589.8,416.5L589.6,416.1L589.6,415.9L589.6,415.6L589.6,414.9L590.6,415.9L590.9,416.5L591.4,416.5L590.6,414.3L589.8,413.4L589,412.7L588.7,412.4L588.5,411.3L590.1,411.5L591.4,412L591.2,411.7L590.9,410.6L592.5,410.6L593.6,411.5L593.6,412.5L592.5,413.4L592.5,414.2L593.1,414.5L596,417.4L597.9,418.4L598.7,419.3L600.9,422.9L601.4,425L600.6,426.5L598.7,424.7L595,420.6L592.5,418.6M575.5,430.9L575,431.8L575.2,432.7L575.5,433.1L576.6,432.3L577.1,433.8L576.6,434.5L576.1,435.2L575.5,435.4L574.7,435.4L572.5,435.4L569,431.5L566.6,426.1L566.9,421.5L566.3,421.3L566.3,421.1L566.1,420.9L565.8,420.8L565,421.1L564.7,420.4L564.4,419L564.2,415.6L564.2,414.7L563.6,414.2L562.8,414.2L561.7,412.7L560.7,406.5L559,404.9L559,404.3L559.3,404L559.6,403.4L559,401.5L559.6,401.1L561.5,401.8L562,402.4L563.4,404.3L563.9,404.9L565.3,404.9L566.1,404.9L566.6,404.1L566.9,402.7L566.6,402L566.1,400.4L566.3,399.3L567.4,400.6L568,399.9L566.3,398.4L565.3,396.5L563.1,390.2L562.6,389.3L558.5,384.4L558,383.2L557.7,381.6L558.8,379.4L559.6,378L560.4,376.9L562,376.5L563.6,377.1L564.2,378.3L563.9,382.7L564.2,385.2L564.7,387.1L566.1,391.1L568,394.8L568.2,395.4L569.3,396.1L570.9,396.5L572,396.8L572.5,398.2L572.3,400L571.7,402L570.9,403.4L571.5,404.1L570.7,405.9L570.7,407.5L570.9,410.9L571.7,414L572,415.8L570.9,416.5L571.2,417.5L572.3,419.2L572.5,420L572.5,421.1L572,422.4L572,423.8L572.5,426.1L573.4,427.7L574.7,429.1L575.5,430.9M591.2,401.1L590.1,400.8L586.3,398.2L584.2,397.5L583.9,396.6L583.9,395L583.9,391.3L583.6,390.4L582.3,391.1L582.3,391.8L583.3,392.5L581.2,392.7L575.2,391.8L573.4,391.1L571.5,389.6L569.8,387.7L568.8,385.9L569.6,385L570.1,384.6L570.9,384.4L571.7,384.4L572,383.9L572,383L572,381.9L572.8,381.6L575.5,381.4L576.9,380.9L576.1,379.4L577.1,378L577.4,377.1L577.7,376.2L577.4,375.3L577.1,374.6L577.1,373.7L578.2,372.8L578.2,371.7L578.2,370.6L577.7,370.1L577.1,369.9L578.2,368.6L579.3,368.6L581.7,369.9L580.9,369.9L580.6,369.9L580.9,370.6L580.9,371.3L581.5,371.7L581.7,372.1L582.8,374L583.9,376.5L581.7,377.4L583.1,378.2L585.2,378.5L586.9,378L587.4,380L586.3,383.7L586.9,385.9L587.9,387L589.3,387.3L592.5,387.3L592.5,390.4L597.1,394.7L598.2,397.5L597.7,397.5L596.8,398.2L595.8,398.4L595,398.2L594.1,397.5L593.1,398.2L593.1,399L594.1,399.9L593.9,400.6L592.5,400.9L591.2,401.1M593.9,469.8L595,470.5L596.3,471.7L596.3,472.4L595.2,472.4L594.4,472.6L593.9,473.1L593.1,473L592.3,471.9L592.5,471L593.3,471L593.6,470.7L593.6,470L593.9,469.8M583.1,464.7L585.2,466.2L586.6,468L586.3,468.4L585,467.7L582,464.8L581.7,463.9L583.1,464.7M596.8,460.8L597.4,461.8L597.9,463.8L597.1,464.5L595.8,463.9L595,463.4L593.6,462.2L593.9,461.3L594.7,460L594.1,456.9L594.4,456.7L595,456.5L595.8,456.5L596.6,456.9L597.1,457.9L597.4,459L596.8,459.7L596.8,460.4L596.8,460.8M555.3,430.9L556.9,429L558,429.3L558,430.2L557.7,430.9L556.6,431.1L556.3,431.3L556.3,431.5L556.3,431.8L556.3,432.3L556.3,432.9L556.3,433.6L556.3,433.8L556.9,434.8L557.4,436.1L556.9,436.3L555.8,435.7L555,435.4L554.5,434.7L554.5,433.8L554.7,433.1L555.3,430.9M602,388.9L601.2,387L600.9,385.2L600.1,383.9L599,383L594.4,380.5L586.3,374.2L582.5,369.2L581.5,368.6L580.1,367.2L579.6,365.8L580.6,364.9L579.8,364L577.1,361.8L578.5,363.4L578.8,363.6L578.5,364.5L577.7,365L576.9,365L576.3,364.5L575.2,363.2L567.1,359.1L564.2,358.6L562.8,357.7L561.7,357.5L560.4,358.6L558.8,361.1L557.4,364.3L556.3,367.9L555.5,375.3L554.7,378.7L554.5,378.9L554.5,379.2L552.6,381.8L550.4,380.9L551.8,382.3L551.5,383.9L550.4,385.5L549.3,386.6L548.8,385.9L548.5,386.8L548.5,387.5L548.8,389.5L548.5,389.3L548,389.1L547.7,388.9L547.7,389.5L549.1,390.9L549.6,393.1L549.3,395.6L548.2,397.5L547.4,398.2L546.9,398.1L546.4,397.7L545.5,397.5L544.5,397.9L543.7,398.8L543.1,399.7L542.6,400.6L542,400.6L542.3,398.4L542.8,397.5L543.4,396.6L542.6,394.7L541,393.2L541,392.3L541,391.6L541,391.1L540.1,391.1L540.4,392.3L539.9,394.1L540.4,395L541.2,395.6L541.8,395.6L542.3,395.9L542.6,396.8L541.8,397.7L540.7,399.7L540.4,400.2L540.1,399.9L539.6,399.9L539.9,400.6L540.1,401.5L539.9,402.4L539.6,403.4L539.1,403.3L538.8,403.3L538.8,403.6L539.1,404.1L539.1,404.9L538.8,404.9L538.5,405L538.5,405.2L538.5,405.6L537.7,405.2L536.1,405.6L535,405.6L535.6,406.1L535.8,406.7L536.4,407.7L536.1,407.7L536.1,408.4L536.4,408.4L536.4,409.2L535.8,409.5L535.6,410L535,411.3L535,412.2L535.3,412.4L535.3,412.5L535,413.4L535.8,413.4L536.1,413.6L536.6,414.2L536.9,414.9L534.2,415L532.9,414.9L531.8,414.2L531.8,414.5L531.8,414.7L531.2,414.9L531,413.3L530.2,413.1L529.3,413.3L528.8,412.7L528.3,413.4L529.1,413.8L529.9,414.5L530.2,415.4L529.9,416.5L530.4,418.3L531,418.6L529.6,419.2L529.3,418.3L529.6,416.5L529.3,414.9L528.8,414.5L526.4,413.6L525.6,413.4L525.8,413.1L526.1,412.4L526.1,412L525.8,412L525.3,412L525.6,411.3L525.3,410.6L524.5,410.8L523.1,410.4L522.1,409.5L521,408.4L521.5,407.7L522.3,408.8L523.4,409.2L524.5,408.6L525.3,407L523.1,407.5L522.3,407.4L521.5,406.3L521.5,405.6L521.8,405.4L522.3,404.7L522.6,404.1L521.8,403.1L520.2,399L516.9,395.7L513.1,390.2L512.6,389.6L511.5,388.6L510.2,387.7L508.8,387.3L509.1,386.8L509.4,385.7L509.6,385.2L508,382.7L509.9,381.4L516.4,380.9L515,380.1L513.1,380L509.6,380.1L508,380.7L506.9,380.5L506.7,379.8L506.9,378.5L506.9,377.6L506.9,376.9L506.1,376.5L506.7,375.8L506.7,375.3L506.4,374.7L505.6,374.2L505.6,373.7L506.4,373.1L506.7,372.6L506.7,371.7L506.1,370.6L506.7,369.5L506.7,368.5L506.1,367.6L505,367L505.3,366.3L505.9,365.8L506.4,365.4L507.2,365.4L507.2,364.9L506.4,364.5L505.9,364L505.3,363.4L505,362.5L505.9,362.3L506.7,362L507.7,361.1L506.9,360.7L504.8,360.5L504.2,360.4L503.4,359.6L502.6,358.4L502.6,357.1L503.7,356.8L503.7,356L502.6,355.1L500.5,348.6L500.7,348.5L501,348.3L501,347.9L500.7,347.6L500.7,347.4L500.7,347.2L501,346.5L499.9,343.6L499.6,342L499.9,340.7L500.5,340.7L501.3,341.2L504.8,342.9L506.1,343L506.4,342.7L506.1,341.8L506.7,340.7L506.7,340L505.9,339.8L505.3,339.4L505,338.7L504.8,337.6L506.1,338L512.6,337.1L518.5,336.2L518.5,335.6L517.7,334.4L516.7,333.1L515.3,331.8L515.8,331.1L516.7,329.8L518.8,329.7L521,330L522.6,329.7L521.8,329.3L521,328.6L520.2,327.3L517.5,325.9L518.8,325.3L518.5,323.5L517.5,321.3L516.4,320.1L510.4,313.7L509.1,312.6L505,310.8L503.4,310.4L502.1,311.7L501.3,314.1L501.5,316.1L503.7,316.4L501,317.7L500.5,318.2L500.2,319L498,319.3L497.2,319.7L495.9,321.1L494,322.4L492.1,323.1L490.2,322.2L491.3,322L492.6,321.3L494,320.6L494.2,319.7L493.7,317.9L490.7,317.2L489.7,315.7L488.3,316.1L481,314.4L480.5,314.1L478.6,312.2L478,311.9L477.2,312.1L474.8,313L473.7,314.6L473.2,315L472.4,314.6L471.8,313L471,312.8L470.2,313.2L470.2,314.2L470.5,315.2L471.3,315.7L471.3,316.4L469.7,316.6L468.1,317.5L467.2,319L467.5,320.8L468.9,321.7L470.5,321.3L473.2,320.1L472.4,321.5L469.7,323.7L469.1,325.5L468.3,326.8L466.4,327.3L460.5,327.5L457.8,328L445.6,336.2L433,342.3L425.4,345L424.3,346.1L423.5,346.5L420.8,347.2L418.6,348.5L417.8,348.6L418.4,347.2L419.2,345.7L419.7,344.5L419.2,343.6L420,343.8L420.5,343.6L420.8,343L420.8,342.1L421.3,342.1L421.6,343L422.2,343.4L422.4,343.4L423,342.9L421.9,341.4L422.7,341.4L423.5,341.4L424.3,341.2L424.3,341.4L424.6,341.2L424.9,341.6L424.9,342L425.1,342.1L424.9,342.1L424,342.1L424,342.9L425.7,342.7L425.9,341.4L426.2,339.8L426.7,339.1L428.1,339.1L429.2,338.5L430,337.6L430.5,336.2L429.7,336.5L427.8,338L427.3,338L425.9,336.5L425.4,335.6L425.1,334L423.5,334.9L421.3,336.7L420.3,338.7L420.8,340L420.8,340.7L419.7,340.5L418.4,339.4L417.8,340L417.3,340L416.8,337.6L415.9,339.4L416.2,340.3L418.9,341.4L418.9,342.1L417.8,342.7L416.5,342.9L415.7,342.5L415.7,341.4L413.2,341.4L410.3,343L407.6,345.7L406,348.6L406,349.4L406.5,349.4L405.7,350.4L405.4,351.3L405.7,352.2L406.5,353.1L405.7,354L405.7,355L405.7,355.7L405.4,356.8L404.9,357.1L404.1,357.1L403.8,357.5L404.3,358.9L403.5,360.4L403.3,361.4L402.7,362.3L401.1,362.5L400,362.2L399.2,361.4L398.7,361.8L398.1,364.1L398.9,365L399.7,367.2L400.6,367.7L401.4,367.2L401.9,365.9L402.2,364.5L401.9,363.2L403.3,364L403.5,365L403.5,366.5L403.8,368.5L403,368.8L402.7,369.4L403.3,369.9L403.8,370.6L403.5,372.2L404.3,373.5L405.7,374.2L407,374.2L406.8,373.9L406.5,373.7L407.6,372.8L409.2,371L410,370.6L409.5,372.2L409.7,373.9L410.5,375.3L411.1,376.9L411.1,380.5L411.6,384.4L410.8,384.1L410,383.7L410,383L410,381.9L410,381.6L409.2,383.9L409.2,385.7L410,386.8L411.6,386.6L411.4,386.2L411.4,385.9L411.1,385.2L412.4,386.4L413.5,388L414.3,389.6L415.1,391.1L415.1,391.8L414.6,391.8L414.3,392L414.1,392.3L413.5,392.5L414.6,393.9L415.7,392.3L415.9,391.1L415.7,389.8L414.6,388.2L415.7,389.1L417,389.8L418.1,390.5L417.8,391.8L418.9,393.1L419.5,393.4L420.3,393.9L421.9,395.9L423.5,397.7L424.3,396.8L423.8,397L423.5,396.8L423.5,396.1L424.6,396.1L425.7,396.5L426.5,397.2L427,398.2L427,399.3L426.2,400.4L426.5,401.1L425.9,402.2L425.7,402.7L425.4,403.4L425.1,403.4L424.3,403.4L424,404.7L424,408.1L423.5,409.7L422.7,411.5L420.3,414.2L420.3,413.6L420,412.5L419.5,411.5L418.9,410.6L420,408.1L420.3,406.8L420,405.6L418.9,405.2L418.1,405.8L417.6,406.7L417.3,407.4L416.5,409.2L416.5,410L418.1,410.9L418.1,411.7L417.6,412.5L416.8,412.7L416.8,413.4L417.3,413.6L418.1,414L418.9,414.2L418.1,415.9L416.8,417L415.1,417.2L413.8,415.9L413,414.7L411.1,412.7L409.7,411.8L408.9,411.8L407,413.4L407,414.2L408.1,414.2L406,421.5L405.4,425.6L406,430.2L407,433.6L407.6,435.2L408.4,435.9L408.4,437.1L408.1,444.6L408.4,449.2L410.5,459.9L410.8,462.5L411.1,463.2L411.4,463.9L412.4,465.4L412.7,465.9L412.7,468L413.2,470.1L414.6,474L416.2,477L418.4,479.9L421.3,482.9L423,485.7L425.4,488.3L428.1,490.6L430,491.3L434.3,497.1L436.5,499.4L438.9,501.2L440.2,502.1L443.5,503.1L443.8,503.3L447.3,503.8L448.6,504.5L451.6,507L456.7,509.1L457.5,510.2L458.1,511L481,531.2L489.7,536.7L491.3,537.2L492.1,538.2L495.6,539.5L497.5,540.7L498.3,540.2L498.8,539.5L499.1,538.9L499.4,538.9L499.6,538.8L499.9,538.4L500.2,538.4L500.7,538.6L501,539.1L501,539.5L501.3,539.8L502.6,540.5L504,542.3L504.8,543.8L505.3,544.7L506.9,545.1L508.3,545.9L508.8,547.3L508.3,548.9L519.1,576.6L520.2,578.7L520.4,579.4L521,583L521.2,583.9L522.3,585.5L524.5,590.7L525.6,594.3L526.8,602M275.4,602L275.8,601.3L277.4,595.5L277.2,594.3L277.2,592.1L277.4,590L278,588.6L277.4,586.9L277.2,584.6L276.9,580.4L276.6,578.3L275.8,576.3L269.9,563.7L265,557.1L263.9,555.9L261.5,554.7L260.7,552.9L259.1,545.1L256.9,520.2L255.8,516.3L252.9,508.6L250.4,504.9L247.2,502.6L245,498.6L243.7,497.7L242.3,497.1L239.6,495.4L238,494.9L236.9,494.3L236.1,494L235.9,494.5L235.6,495L235,495.6L234.2,495.6L233.4,495.2L232.3,494L229.9,492L228.6,490.6L227.8,491.2L225.3,489L224,489L224.5,489.9L224.2,490.1L223.7,490.5L223.4,490.6L223.7,491.5L224.2,492L224.8,492.6L225.6,492.7L225.6,493.4L225.1,493.6L224.8,494L224.5,494.9L225.6,495.4L225.3,496.1L224.5,495.9L224,494.5L223.4,493.6L219.9,492L216.1,488.5L215.3,488L213.2,486L212.4,485.5L210.2,485.5L209.4,485.2L208.6,484.8L205.9,481.8L205.6,481.6L205.1,480.2L203.7,479.3L200.2,477.7L199.4,477.2L198.9,476.2L198.3,474.7L197.5,475.3L196.2,475.4L194.8,475.3L194.3,474.4L193.7,473.5L190.2,471.9L189.7,469.6L181.6,465.2L179.4,463.2L178.6,464.3L178.1,465.4L177.8,466.8L177.8,468.4L174.3,467L172.9,465.9L173.2,464.8L171.9,462.4L169.7,461.1L162.1,459.9L158.4,458.5L156.2,457.2L155.7,457.6L152.2,457.4L150.5,457L149.7,456.7L148.9,455.4L144.1,455.1L142.2,455.4L141.4,456L139.2,457.7L138.4,458.6L137.8,459L137.3,459L136.8,459L136.2,459L131.6,462.4L130.3,462.5L129.5,462.9L127.6,464.8L121.9,468.5L120.3,470.7L120.8,472.6L120,473.9L119.8,474.4L119.8,475.3L119.5,475.4L118.4,476.2L117.9,476.5L117.6,477.9L117.6,479L117.6,480L116.5,481.3L114.6,482.2L110.6,483.6L108.4,484.8L107.3,485.9L106.3,486.9L104.4,489.6L104.4,490.3L104.4,491.9L104.4,492.7L103.8,494.3L103.3,495.6L99.8,499.6L98.4,502.1L99.5,504.2L99.5,504.9L97.9,505.2L95.7,507.9L93.6,508.6L93,509.1L92.8,509.6L92.5,510.2L92.2,511L91.1,511.6L89.2,512.1L84.1,515.6L70.9,518.8L67.4,521.2L64.1,522.1L55,521.9L52.8,522.8L51.7,522.8L51.2,522.3L50.4,521.9L49.6,521.9L48.7,522.6L48.5,522.6L47.9,522.6L47.7,522.8L47.7,523.2L47.9,524.4L47.7,524.7L47.1,525.1L46.6,525.1L46,525.6L45.5,526.3L44.7,527L44.4,527.4L43.3,528.2L42.3,529.7L40.6,529.5L39.6,529.1L38.5,529.8L37.7,530.7L37.4,531.8L36.9,533L36.1,533L34.7,532.8L33.1,532.3L31.2,532.5L30.1,533.2L29,534.2L29.3,535.3L28,536.8L27.4,537.4L26.9,536L25.3,535.6L24.4,536.1L23.4,536.1L22.8,537.2L22.3,537.5L22,538.4L21.5,541.2L22,544L22,544.5L22.3,545.8L22.6,546.6L21.5,547.3L20.4,545.6L19.9,545.2L18.5,545.1L17.4,545.9L16.3,547L15.3,547.8L14.7,548.5L14.2,547.3L13.1,547.3L11.5,547.1L10.1,547.3L9.1,548L8,549.4L7.7,551L8.2,551.3L8.2,551.5L8.5,551.7L8.5,552.2L6.4,555L6.1,557.4L4.5,558.7L3.9,559.7L2.3,559.9L2.3,559.2L2,558.8L1.8,558.5L1.2,558.8L1.2,559.5L1.5,560.9L0.4,561.3L-0.4,560.9L-1.5,560.9L-2,561.1" fill="none" stroke="#8fa6a8" stroke-width="2"/>
<path d="M73.3,-2L72.8,-1.2L72.2,2.5L72.2,6.5L73,8.8L73,9.6L71.2,11.1L70.3,12L69.8,13L69.8,15.3L69.3,16.2L68.7,17L68.2,18.2L67.9,19.5L67.4,22.4L67.4,23.9L67.6,25.2L67.9,26.7L68.5,28.3L68.2,29.8L67.4,31.5L66,32.3L64.7,33.2L64.1,35.5L64.1,37.8L63.6,39.7L62.8,41.4L57.9,48.1L57.4,49.4L57.4,51.1L57.1,51.9L56.6,52.6L56,53.6L55.5,55.3L55,57.5L55.2,62.1L58.5,67.8L58.5,71.4L57.9,72.7L55.8,74.8L55.5,76.3L55.5,78.2L55.5,78.7L55,79.7L54.7,80.3L54.1,80.8L53.9,81.2L53.9,81.8L53.9,82L53.9,82.3L53.9,82.9L54.4,85L54.1,86.1L53.1,86.7L52.8,87.2L51.7,90.8L51.4,92.3L52.3,96.3L52.3,98.2L52,98.9L50.6,100.2L50.4,100.8L50.6,103.2L50.9,104.4L51.2,104.9L52.3,105.5L53.3,107L55,110.4L55.5,111L55.8,111.3L56.3,111.9L56.6,113L56.3,113.4L56,114.5L53.3,115.5L51.4,116.6L51.2,117L48.2,119.2L48.5,119.4L49.6,120.3L49.8,120.3L49.8,121.5L49.6,122L49,122.2L48.2,122L47.7,122.2L47.7,122.6L47.9,123.2L48.5,123.9L48.5,124.1L48.5,124.5L48.5,124.7L48.2,124.8L47.1,126L46,125.8L45.5,125.4L45.2,125.2L43.9,124.8L43.1,125L43.1,125.8L43.3,126.3L43.6,126.7L44.2,127.1L44.2,127.8L43.9,128.8L43.6,129.3L42.5,130.8L41.2,131.4L40.4,131.6L37.4,131.4L35.2,131.4L33.1,131.8L30.4,133.1L29.8,133.1L29.3,132.9L29,132.5L28.8,132.1L28.5,131.8L26.3,131.2L24.7,130.3L24.2,128.4L25.5,125.2L23.6,125.4L22.6,125.2L21.5,124.7L19.9,124.3L16.1,125L14.2,124.7L13.4,124.3L12.8,124.1L12,124.3L11.5,124.7L10.1,125.2L10.1,126.3L10.9,127.8L11.2,129.2L10.7,130.1L9.6,131.2L8.5,131.8L6.4,132.3L6.4,134.4L4.5,135.5L3.4,137L2.3,138.7L2,140.2L10.9,139.3L12.3,138.5L13.4,139.4L14.5,140.6L15.3,141.7L14.7,142.8L13.9,143.4L13.4,143.6L12.6,143.9L11.5,145.4L10.9,145.6L10.4,145.6L8.8,147.1L8.5,149.3L8.8,152.1L3.7,155.9L1.5,158.1L0.1,160.5L-0.1,160.7L-2,162.4M-2,257.1L-0.9,259L-2,261M-2,274.3L1,274.9L2.3,276L2,276.7L1.5,277.7L1,278.4L0.7,278.9L1,278.9L1,279.8L1,281.1L1,282L0.7,282.4L1,282.8L1.5,283.3L2.3,283.3L2.8,282.9L3.4,282.4L3.9,282.2L5.5,282.9L10.7,288.6L10.9,289L11.5,290.1L12.3,292.2L12.8,294.2L13.1,295.3L13.6,296.2L12.6,296.8L11.8,297.7L11.2,299L10.7,300.4L9.6,302.3L8.2,303.5L6.4,304.3L5,304.8L3.1,304.8L2.6,304.8L2.6,305.3L2.3,306.1L2.3,306.6L1.8,306.8L1.5,306.1L1,305.7L0.1,305.5L-1.7,306.1L-2,306.2M-2,320.4L-1.7,320.8L0.1,322.2L2.3,322.8L3.1,323.1L5,324.8L5.8,325.5L8.2,326.2L9.3,326.8L9.6,328.4L9.6,328.9L8.8,330.9L8.5,331.8L8.5,332.7L9.3,333.8L9.9,334.7L10.1,339.1L10.7,340.7L14.2,342.7L17.4,345L17.7,345.6L18.2,346.3L18.8,347.6L19.3,348.8L20.4,349.5L23.4,351L24.2,351.3L23.9,352.8L23.4,354.4L21.7,357.1L19.3,360L19,360.7L19.3,363.8L20.1,365.9L20.1,367.6L18,369.4L16.6,371.9L16.1,372.4L15.8,372.2L14.7,371.2L14.2,371L11.5,371.7L8.8,372.8L8,373.9L6.6,376L5.5,377.1L4.7,377.3L3.1,377.3L2.6,377.4L2,378.3L2.6,379.1L2.8,379.4L2.8,380.1L0.4,381.4L-2,380.4M-2,408.6L0.4,410L2,410.4L5.5,409.7L6.9,409.9L10.7,411.3L12,412.9L12.3,413.4L12.6,414L12.6,414.3L12.6,414.5L12.6,415L12.3,415.2L12,416.8L11.8,417L12.8,419.3L13.1,421.8L13.4,422.7L15.8,427.2L16.1,428.4L14.7,428.4L12,427.7L10.7,427.7L9.1,428.6L7.7,430.4L7.2,432.5L8,434.7L6.9,435.5L4.2,440L0.4,443L-0.4,444.4L-0.1,447.6L1.5,450.6L3.9,453L5.8,454.7L3.4,456L2.8,456.9L2,460.2L2,460.9L2,461.5L2.3,462.4L2.6,462.9L4.2,464.8L4.7,465.7L5.5,467.8L6.1,468.7L6.9,469.4L8.2,470.5L9.1,471.4L9.3,472.3L9.6,473.3L10.1,474.2L10.7,475.1L11.8,475.4L12.6,475.3L13.4,475.1L14.5,474.9L15.5,475.3L19.9,477.6L22.8,478.6L30.9,483.6L32.3,484.3L34.2,484.5L35.2,485L35.8,485.7L36.1,486.6L36.9,487.3L37.7,487.5L40.6,487.5L53.6,483.7L55.8,483.6L58.7,481.5L61.2,482L60.1,485.3L61.2,487.3L62.8,488.9L63.6,490.8L63.9,491.5L63.9,493.3L62.8,494.3L61.7,495.2L60.9,496.1L60.6,497.5L59.8,499.8L59.3,501L57.7,502.8L53.9,506.1L52.3,508.6L49,512.1L47.9,514.4L48.2,517L49.6,521.9M44.7,527L43.9,525.8L42.5,524.9L41.2,525.4L39.8,526.7L39.6,527.9L39.6,529.1M589.6,-2L589.6,-1.2L589.3,1.7L588.7,2.1L587.7,3.2L586.3,3.1L585.8,2.3L585.5,1.3L584.7,0.2L584.2,0.2L583.1,0.6L582.3,0.6L582.3,0L582.3,-0.8L582,-1.5L581.5,-1.9L580.4,-1.7L578.2,-0.8L577.1,-0.4L576.1,-0.8L573.7,-2M569.7,-2L568.5,0.8L567.4,2.1L563.6,3.8L562,5L561.5,5.2L560.7,5.4L553.1,2.7L542.6,1.5L540.1,0.4L539.3,-0.2L538.3,-1.7L538.1,-2M522.2,-2L522.1,-0.8L521.8,0.8L520.4,3.4L520.2,4L519.4,4.6L518.8,5L517.2,5.2L516.9,5.2L516.4,6.3L515.8,9.4L515.6,9.2L512.6,7.8L511.3,6.1L510.2,5.2L508.8,4.4L501,2.3L498.6,2.7L496.1,3.4L495.3,4.2L495.1,5L495.1,5.4L495.3,5.9L495.6,7.8L496.4,9L496.4,9.9L496.1,11.1L495.3,13.2L494.8,14.3L494.8,15.3L494.8,18.5L494.8,19.7L494.2,20.4L494,21L494,21.6L493.4,24.1L492.4,25.8L485.1,32.3L482.6,33.6L472.1,35.5L464.5,38.5L463.2,39.3L460.5,42.2L458.1,43.5L457,44.4L457,44.6L452.9,45.4L451.6,46.2L451,46.9L449.7,49L448.6,50.1L445.6,52.2L445.4,52.6L444.3,54.3L443.8,54.5L443.5,54.5L442.9,54.7L442.4,55.5L442.4,57L442.7,58.5L443.2,59.8L444,61L449.4,66.4L450.5,68.9L450.5,70L450.8,70.2L451,71.6L451.6,72.3L453.5,73.4L455.1,75L455.6,75.3L456.7,76.7L459.4,82.5L461,85L461.3,85.3L456.4,93.1L456.2,94L455.9,94.6L455.9,95.3L455.9,96.1L455.4,96.8L454,99.1L455.1,100.2L459.4,101.2L460.5,100.8L462.4,100L463.5,100.2L464.5,101L465.4,102.1L466.7,104.6L467.5,106.3L467.5,107.6L467.5,108.9L467.5,110.4L467.2,110.6L466.4,112.8L466.2,113L465.1,114.7L464.8,114.5L464.8,117.2L465.1,117L465.1,117.2L464.3,119L464,119.2L464,121.3L464.3,121.8L464.3,122.6L464.5,123.2L464.8,123.7L464.8,124.7L462.7,127.3L462.1,127.7L461.3,127.7L460.8,127.5L460.5,127.1L459.7,126.7L458.9,126.7L458.3,126.9L457.8,127.3L457,126.9L453.2,124.1L449.7,120.3L449.2,119.8L448.3,119.6L447.3,119.4L445.4,117.9L445.1,115.1L445.9,112.5L448.1,111.5L446.5,110L444.6,108.7L443.5,107.4L444,105.3L442.9,105.5L438.6,104.4L435.9,104.4L433.2,105.1L431.9,105.9L429.2,108.1L428.6,108.9L427.3,109.3L425.7,109.6L424.3,109.6L423.2,109.1L421.1,107.2L420.3,106.6L420,105.7L419.2,103.2L418.9,102.7L417.6,102.3L414.6,103.4L413.2,103.8L408.9,102.9L407.3,103.1L405.7,104L404.9,104L404.1,103.4L403.8,102.1L404.1,101.4L404.6,100.6L404.9,99.9L404.9,98.5L405.1,98.2L404.9,98.2L403.8,98.5L403.3,99.1L401.4,100.6L400.3,101L400.3,101.9L400.6,102.5L401.1,103.2L401.9,103.8L402.2,104.2L402.4,104.8L402.4,107.8L402.4,108.7L402.2,109.5L400,112.3L399.5,112.5L382.2,111.7L376,112.8L375.2,113.4L374.4,115.3L373.6,115.7L369.2,114.7L363.3,114.7L360.1,114L358.4,114L358.2,114.3L356.3,116L355.7,117.3L355.2,119.8L354.7,120.9L353.3,122.4L351.7,123L348.2,123.7L346.6,123.2L344.7,122.8L343,123.3L339.5,127.3L340.3,127.7L341.2,128.2L341.4,129L340.9,130.1L339.5,130.6L336.3,130.6L334.9,131L333.6,132.5L332.5,133.8L331.4,135L329.8,135.7L327.9,135.5L328.2,132.5L326.6,131.8L324.7,132.3L319.8,135.7L318.2,136.3L310.4,136.1L309.3,135.5L308.8,134L309,133.5L309.3,132.7L309.3,132L309,131.4L305.2,127.5L301.5,125.6L300.9,124.7L303.4,123L303.9,122.2L302.3,120.9L301.5,120.5L300.4,120.5L299.3,120.7L296.3,122.2L294.2,122.4L293.4,122.2L293.1,121.7L292.8,121.1L292.6,120.7L282.6,117L280.7,117L279.9,117.7L278.2,119.8L277.2,120.5L276.4,120.7L273.1,120.3L272,119.8L271.5,119.2L271,118.8L271,117.9L271.2,117.2L271.5,116.6L271.5,116.2L271.2,115.1L271,114.9L270.4,115.1L269.1,115.5L268,115.8L268.3,116.8L268.8,118.1L269.3,119.2L269.3,120.3L268.5,124.7L269.6,125.2L270.1,126L270.7,126.9L271,128.4L271,130.6L270.1,133.3L269.1,135.5L268,137.2L267.2,137.6L265.6,138.1L264.7,138.7L264.5,139.3L262.9,142.6L261.5,144.5L259.9,145.8L256.6,147.8L255,148.6L250.2,149.2L249.1,149.3L248.5,149.2L249.1,148.4L249.6,147.1L249.9,146.9L251,146.7L251.2,146.4L251.5,145.6L251.5,144.9L251.2,144.1L252.6,140L252.6,138.1L251.2,137.4L248,137.9L247.2,138.9L246.9,139.1L246.4,139.1L245.6,138.7L245.3,138.7L244.2,139.1L243.7,139.4L243.1,139.6L242.6,138.9L242.1,137.8L242.1,136.6L241.8,135.5L241,134.4L242.6,133.1L243.1,132L242.3,130.6L238.8,125.2L237.7,125.6L237.2,126.2L236.4,126.5L235.6,126L235.6,125.4L235.6,125L235.6,124.7L234.8,123.2L234,122.2L233.2,121.3L232.9,119.4L232.1,120.2L231,120.3L228.6,120.2L226.4,119.4L226.1,119.4L225.1,120L224.5,120.2L222.9,119.2L222.6,118.1L222.9,116.8L222.6,115.5L221.8,114.5L220.7,114.1L219.7,114.1L218.6,114.9L216.7,116.8L215.9,118.7L214.8,120.5L212.6,121.5L208,121.5L203.5,120.3L203.2,120.2L182.4,107.2L179.7,106.6L176.7,106.6L175.6,104.9L171.6,104.9L163.2,104L161.9,104.6L160.5,105.9L157.8,106.8L154.9,107L153.2,106.6L151.1,104.9L150.8,104.9L149.7,103.8L149.7,103.1L151.1,102.7L149.2,100.8L146.8,99.5L144.9,99.3L144.1,101.6L144.9,102.3L140.8,102.3L140.5,101.6L140.5,100.8L139.7,100L139.5,99.1L139.7,98.4L140.8,96.8L141.1,96.5L140.5,95.3L139.7,95.2L138.9,95.3L138.1,95.2L137.6,94.2L137,92.9L136.2,91.9L135.4,91.6L134.6,92.3L134.3,94.8L133.3,95.3L132.4,94.8L132.4,93.5L132.2,91.9L132.2,91.2L130.8,90.4L128.9,90.4L127.6,91L128.4,92.9L127.3,93.5L123.3,94.2L122.5,94.2L121.6,94.6L120.8,96.1L120.3,96.8L119.8,99.1L118.9,99.9L117.1,100.8L116.5,101.7L116.2,102.5L116.5,103.4L116.8,104.4L116.2,105.5L117.6,105.9L117.9,106.1L119.8,107.6L121.4,108.3L122.7,108.3L123.8,107.8L124.9,107L126,106.4L129.7,105.9L130.6,106.1L131.6,106.3L131.9,106.4L132.4,106.6L132.2,109.3L131.6,108.9L131.6,108.3L131.6,108.1L131.1,108.1L130.8,108.3L130.6,108.5L130.3,109.1L130.6,109.6L130.6,110L130.8,110.4L130.6,111.1L130.6,111.9L130.6,112.8L130.3,113.4L130,113.6L128.9,114L128.4,113.2L128.1,113L127.3,111.5L126.2,110.4L123.8,110.6L121.6,112.1L120.8,114L120.6,114.5L118.7,114.9L118.4,114.9L113.5,114.9L110.8,114.1L110,113.8L109.5,112.6L109,111.5L108.7,111.1L107.9,111L105.7,110.4L104.4,110.4L100.3,111.1L100,111.3L99.8,111.9L99.2,112.5L97.9,112.8L96.3,113.8L95.5,114.1L94.9,114.9L94.6,115.5L94.4,116L93.6,116.4L90.1,117.2L80.3,117.2L80.3,116.8L80.1,115.7L79.8,114.7L79.3,114.1L74.7,114L73.6,113.4L72.2,115.5L70.9,117L69.5,117.7L66.6,118.3L63.3,119L61.7,118.8L60.6,118.3L57.7,116.8L57.9,116.8L59.8,116.8L60.6,116L61.4,113.2L59.8,113.4L56,114.5M602,222.5L601.7,222.4L600.9,222.8L599.5,224.6L598.7,226.5L598.2,228.3L597.7,230L596.8,231.8L596,233.1L595.8,233.5L594.1,234.4L592.3,234.6L591.4,234.2L590.1,234.8L589.8,235.3L589.3,236L588.5,237L587.9,238.4L587.4,238.3L587.1,238.3L586.6,238.3L585.2,239.9L584.4,240.5L583.6,240.6L582,240.8L581.2,241L580.1,242.7L579.6,244.7L579,245.6L578.8,246.5L577.4,247.1L576.6,246.2L575.8,244.1L574.7,242.8L572,243.4L570.9,243.2L569.8,242.7L568.5,242.1L568,241.6L568,241L567.4,240.5L566.6,240.3L564.2,240.8L555.3,240.6L548.2,240.5L548,240.5L547.2,240.1L543.1,236.6L542,236L540.7,235.7L539.3,235.5L538,235.9L536.9,236L535.6,235.9L528.8,232.6L526.6,232.2L521.8,233.1L520.7,233.1L515.6,231.8L514.5,231.8L513.4,232L512.3,231.8L503.2,228.9L499.9,228.9L499.4,228.3L498.3,227.2L497.8,227L493.2,227.4L489.9,226.7L482.4,228.3L479.4,228.1L477.8,227.6L472.9,224.6L466.7,223.2L449.2,221.9L445.1,219.1L443.2,218.6L442.4,218.4L441.9,218.4L440.8,218.9L440,218.9L439.4,218.6L437.8,217.6L437.3,217.3L433.5,216.9L429.2,217.4L428.1,217.3L426.7,216.7L424.6,215L422.2,214.7L420.5,214.5L417.3,213.2L414.9,210.8L413.2,207.3L412.7,204.9L411.4,204.1L410,204L408.4,203.4L407.6,202.9L407.3,202.3L407,201.6L407,200.3L407.3,199L407.6,198.2L407.8,197.5L407.6,196L407,193.6L405.7,192.9L402.7,192.7L401.6,192.3L401.1,191.7L400.8,191.2L400,190.3L399.2,189.9L397.3,189.5L396.5,189.1L397.6,188L397.6,187.1L397,186L396.5,184.9L396.2,182.3L396,181L395.4,179.9L396.2,178L400.6,175.4L402.2,173.4L402.2,171.9L402.4,170.4L400.6,169.8L397,170.6L395.7,170.8L388.1,174.7L382.7,175L379.5,176.2L376.3,177.8L373.6,179.9L370.3,180.4L369.5,181L367.9,182.3L367.1,182.5L365.7,181.9L363.3,180.1L361.9,179.9L361.4,180.1L360.6,179.9L356.8,179.1L354.9,179.3L352.8,179.9L352,180.2L351.4,180.4L350.6,180.2L350.1,179.9L349.5,179.5L349.3,178.9L348.7,178.8L347.4,178.4L346.6,178.6L346,179.1L345.5,179.9L342.8,182.5L340.6,182.3L338.2,181.2L335.5,180.6L330.4,181.5L325,183.2L323.9,184L319,188.8L318.2,190.1L317.4,194L316,197.3L316,197.9L316,199L316,199.5L315.5,199.9L314.7,200.3L314.4,200.4L312.8,203.4L311.7,204.5L310.6,204.7L309.6,204.1L306.9,204L305.5,204.1L303.1,205.1L302.3,205.1L301.5,204.7L300.1,203.6L299.6,203.2L298.8,203.2L297.4,203.8L296.6,203.6L294.4,202.5L293.6,202.1L292,202.7L291.2,202.7L290.7,201.7L291.2,201.2L292.8,199.7L293.1,199L292.6,197.9L286.6,194.5L285.5,194.2L284.2,194.3L276.6,196.4L273.4,196L271,194.2L271,191.7L271.8,188L271.5,186.2L270.7,185.3L268.3,183.4L266.6,180.8L265.8,179.9L265.6,179.7L265,179.5L264.5,179.7L262.3,181L260.4,183L259.3,185.6L259.1,187.7L257.2,187.9L255.8,187.3L254.8,187.7L253.4,189.5L253.1,191L253.1,191.9L252.9,192.7L252.1,193.8L248.8,195.4L246.9,196L246.4,196L245.3,196L242.1,194.9L240.4,194L237.5,191.2L229.4,188.6L227.8,187.1L226.7,185.8L226.7,184.7L226.7,183.6L226.9,181L227.2,179.9L227.2,179.3L226.9,178.9L226.7,178.9L226.1,178.8L226.4,177.5L212.1,173L211,172.8L207,173.4L205.6,173L207.8,170.2L208.3,167.4L207.5,164.6L205.6,162.2L203.5,160.7L203.5,159.8L204.3,158.1L204.3,157.4L203.5,155.9L202.9,154.9L202.6,154L202.9,152.3L201.8,151.2L201,150.3L203.5,146.2L206.2,143L206.4,142.2L206.7,140.4L207,139.3L209.9,135.7L210.7,134L210.7,129.3L208.6,127.3L205.9,126.2L203.7,122.8L203.5,122L203.2,120.2M13.6,296.2L17.2,299.9L18.8,301L21.2,301.5L23.6,301.5L25.8,301L30.4,299.2L32.5,297.9L33.6,297.5L39,298.1L41.5,297.2L46,294.1L48.2,293L49.8,292.8L50.6,291.7L51.4,290.4L52.5,289.9L60.4,291.7L61.4,292.4L62.5,293.5L63.9,295.5L64.1,295.9L64.9,296.1L65.5,296.1L66.3,295.7L66.8,295.7L70.6,297L72.5,297L73.9,297.3L74.4,297.3L75.2,296.8L75.5,296.4L75.5,295.9L75.7,294.8L75.7,294.6L77.4,294.6L77.4,292.6L78.2,291L79.3,290.1L84.7,289L85.5,288.6L86,288.2L86.8,287L86.8,286.8L87.6,285.1L87.9,285L88.2,281.8L88.2,280.6L88.4,279.5L89,278.2L89.8,277.7L91.1,277.5L91.9,277.3L95.2,274.4L96.8,270.9L96.8,266.9L94.4,262.7L92.8,261.2L92.5,260.6L92.8,259.7L93.6,258.6L94.9,257.2L96.5,256.4L99.8,255.7L101.4,254.6L105.2,249.8L107.3,248.7L108.1,248L109,247.1L109.2,246.2L109.2,245.1L108.7,244.7L108.4,244.1L109.2,242.8L110.8,241.2L112.7,240.1L116,239.4L117.1,239.2L119.2,239.5L120,241L120.6,243.4L120.6,246.7L120.3,249.8L118.9,255.5L118.7,258.3L118.9,261L119.8,262.7L121.4,263.8L123.3,264.7L125.2,265.6L127.3,267.8L132.2,274.9L133,275.3L134.3,275.8L137.8,277.8L139.2,277.8L139.7,277.5L140.8,276.6L141.4,276.4L141.6,276.4L141.9,276.6L142.4,277.5L143,278L144.3,278L146.5,278L147.6,278.4L149.5,280.9L148.4,283.5L146.2,286L145.1,289.1L144.6,289.7L144.6,289.9L145.9,290.1L147,290.4L151.3,292.8L151.9,293.2L152.4,293.9L153,295.5L154.3,297.9L155.1,299.3L155.4,300.8L155.7,302.6L155.1,303.9L154.9,305.2L154.6,306.8L157.6,305.9L160,307L162.1,307.5L164.6,304.4L166.5,300.8L166.7,299L165.9,297.2L165.1,296.8L163.5,296.4L162.7,296.1L162.1,295L161.6,293.2L160.8,292.2L160.5,292.1L160.5,291.7L160.5,291.5L160.8,291.1L163.2,289L161.9,285.1L162.1,283.9L164,282.4L165.7,281.8L166.5,281.5L167,280.4L167.3,279.1L167,276.7L167.3,275.3L168.9,273.3L174.3,269.4L174.8,268.3L175.1,267L175.6,266.1L176.5,265.4L177.3,265L178.1,264.3L178.9,263.2L180,259.2L182.1,254.6L182.7,252.2L182.7,250.9L181.6,247.1L181.6,245.4L181.6,244.1L181.6,243L180.5,242.3L180,240.8L180.5,238.1L181.9,235.5L183.2,234.2L186.7,233.7L188.3,234.2L188.3,235.5L190.2,237.3L190.8,237.5L191.6,237.2L192.1,236.6L192.4,235.9L192.9,235.1L194,234.2L194.5,234L194.8,234.8L195.4,245.2L195.1,246.9L195.4,247.4L195.9,248L197.5,248.9L198.3,249.5L199.7,253.5L200.8,254.8L202.1,255.9L204,256.4L212.6,256.6L214,256.1L215.1,254.4L215.1,253.5L215.1,252.2L215.1,251.1L216.1,250.2L216.7,250.2L218.6,251.3L219.7,251.5L221.3,250.9L226.1,248.4L229.4,247.8L231,248L232.3,248.4L234.2,249.6L234.8,251.3L234.8,253.5L235.3,255.9L236.4,257.3L239.4,259.9L240.2,261.9L240.2,264.3L242.6,264.3L245.8,263.2L248,261.7L248.8,259.7L248,257.7L244.8,254.6L244.2,253.5L244,252.6L244,251.5L244.2,250L244.8,248.9L246.4,247.6L246.9,246.9L247.5,244.5L246.9,243.2L245.8,242.7L242.3,242.1L240.2,241.2L239.1,239.7L240.2,237.5L239.6,237L239.4,236.4L239.1,235.7L239.1,234.6L239.4,233.5L239.4,231.1L239.4,230.3L240.2,229.4L241.8,227.8L242.3,226.8L243.1,223.3L243.7,222.6L244.2,222.1L251.5,220L253.4,220L254.5,220.9L254.8,222.2L254.2,224.5L254.5,225.7L257.7,226.8L258.3,227.2L258.8,227.8L259.1,228.3L259.9,228.7L261,228.9L263.7,228.7L269.1,230L270.4,229.8L271,228.9L271.2,228.1L272,225.4L272,222.6L271.5,220.4L269.9,219.1L266.6,218.7L265.3,217.3L264.7,215L265,214.1L265.8,213.2L266.6,211.9L266.6,210.4L266.6,209.1L266.9,208.2L268.3,207.3L269.1,206L269.1,204.5L268.5,202.9L268.3,201.2L269.9,199.3L270.4,198.6L270.7,197.7L271,194.2M514.5,231.8L514.5,232.6L514.5,233.3L514.2,234L513.7,234.6L513.7,237.3L513.4,237.9L512.9,239.2L511.5,239.9L509.6,239.9L506.9,240.1L505,241.9L503.7,244.1L501.8,246L498.3,248L496.4,249.3L495.6,249.6L494.5,249.8L493.7,250.7L492.6,253.1L491.5,255L491.3,255.5L489.4,256.8L489.9,257.7L490.5,259.2L490.7,261.7L491.8,263.2L492.1,264.7L492.6,265.6L494.8,265.4L493.7,263.4L494.8,263.8L497.2,263.9L498.3,264.5L500.2,265L501.8,266L504,268.1L505.9,268.5L508,268.3L509.1,268.5L509.9,268.7L510.2,269.6L510.4,270.7L508.3,274.5L501.3,280L499.9,280.9L498.3,283.3L498.8,283.9L498.8,284.6L498.8,285.3L498.3,286.2L497.8,286.4L496.7,287.5L497.5,288.6L498,289L498,289.1L498.3,289.3L500.2,291.7L502.3,291.5L504.8,290.2L506.9,289.9L507.5,289.7L508.8,291.7L508,293.9L507.7,296.1L506.9,297.5L504.8,302.8L504.5,306.4L505,307.7L505.6,308.6L507.7,309.9L510.2,310.1L511.5,310.6L514.5,312.8L515.3,313.3L520.4,315.7L526.4,325.9L527.2,326.8L528.3,327.5L529.1,327.5L529.1,327.7L528.5,329.1L527.2,330.9L525.6,332.7L522.1,333.1L519.1,331.6L515.3,331.8M419.2,511.6L421.6,511.2L423,508.9L422.7,508.6L423,508.2L423,508.1L423.2,507.9L423.2,507.7L423.8,506.7L424,504.9L423.8,503.1L423.2,502.1L421.1,502.4L418.6,503.7L417.8,504.5L416.8,505.6L415.9,508.2L417,510.3L419.2,511.6M201,150.3L199.9,152.3L198.6,156.1L198.3,159.8L198.9,161.6L199.7,163.1L200.5,165L200.5,167.2L199.7,168.7L198.6,170L197.8,171.1L197.8,172.1L199.4,172.6L204,173.4L205.6,173M506.1,343L509.1,346.3L511.5,346.1L518.8,345.7L522.6,348.1L523.4,349L524.8,349.5L528.8,350.1L529.3,349.4L530.2,348.5L531.2,347.4L534.7,345.9L535.8,344.5L534.2,342.7L534.2,341.4L534.5,340.7L535,340.3L536.1,340.7L538,341.1L539.1,341.6L540.1,342.7L542,343.9L543.9,344.7L545.8,344.8L546.1,344.8L548,344.5L551.5,342.7L553.4,342.1L555,342.7L558,343.9L561.5,344.5L565,344.3L568,342.7L569.3,341.2L572.3,339.1L573.1,337.3L573.6,335.8L573.9,333.5L573.9,332.9L574.4,331.6L575,330.6L576.9,328.4L577.7,327.3L578.8,325.1L579.3,324.4L579.6,324.2L580.6,323.9L581.5,324.4L581.5,326L581.5,328L581.5,329.5L582.3,330.7L583.1,331.8L585.8,333.8L586.3,334L586.9,334.4L587.1,334.9L587.4,335.8L587.1,337.6L587.1,338.2L588.7,339.6L595.5,342.7L596.8,345.6L599.8,346.3L602,345.4" fill="none" stroke="#b8ab95" stroke-width="2" stroke-dasharray="6 5"/>
<circle cx="300" cy="300" r="22" fill="#c2622f" fill-opacity="0.18"/>
<circle cx="300" cy="300" r="9" fill="#c2622f" stroke="#fff" stroke-width="3"/>
<text x="300" y="344" text-anchor="middle" font-family="Inter, Helvetica, Arial, sans-serif" font-size="22" font-weight="600" fill="#2e2b25" stroke="#f5f0e6" stroke-width="6" paint-order="stroke">Riva del Garda</text>
</svg>
